Adsworth-8PT G0 XT1.ufo
<glyph name="exclam" format="2">
  <advance width="898"/>
  <unicode hex="0021"/>
  <outline>
    <contour>
      <point x="352" y="534" type="line"/>
      <point x="342" y="1500" type="line"/>
      <point x="542" y="1500" type="line"/>
      <point x="532" y="534" type="line"/>
    </contour>
    <contour>
      <point x="448" y="-10.0" type="line" smooth="yes"/>
      <point x="491.0" y="-10.0"/>
      <point x="556.0" y="75.0"/>
      <point x="556" y="146.0" type="qcurve" smooth="yes"/>
      <point x="556" y="176.0" type="line" smooth="yes"/>
      <point x="556.0" y="250.0"/>
      <point x="494" y="333.0"/>
      <point x="448" y="333.0" type="qcurve" smooth="yes"/>
      <point x="446" y="333.0" type="line" smooth="yes"/>
      <point x="404" y="333.0"/>
      <point x="342.0" y="250.0"/>
      <point x="342.0" y="176.0" type="qcurve" smooth="yes"/>
      <point x="342.0" y="146.0" type="line" smooth="yes"/>
      <point x="342.0" y="70.0"/>
      <point x="402" y="-10.0"/>
      <point x="446" y="-10.0" type="qcurve" smooth="yes"/>
    </contour>
  </outline>
</glyph>
<glyph name="quotedbl" format="2">
  <advance width="1354"/>
  <unicode hex="0022"/>
  <outline>
    <contour>
      <point x="270" y="872" type="line"/>
      <point x="270" y="1500" type="line"/>
      <point x="490" y="1500" type="line"/>
      <point x="490" y="872" type="line"/>
    </contour>
    <contour>
      <point x="864" y="872" type="line"/>
      <point x="864" y="1500" type="line"/>
      <point x="1084" y="1500" type="line"/>
      <point x="1084" y="872" type="line"/>
    </contour>
  </outline>
</glyph>
<glyph name="numbersign" format="2">
  <advance width="1774"/>
  <unicode hex="0023"/>
  <outline>
    <contour>
      <point x="354" y="0" type="line"/>
      <point x="614" y="1500" type="line"/>
      <point x="755" y="1500" type="line"/>
      <point x="495" y="0" type="line"/>
    </contour>
    <contour>
      <point x="1612" y="420" type="line"/>
      <point x="82" y="420" type="line"/>
      <point x="82" y="550" type="line"/>
      <point x="1612" y="550" type="line"/>
    </contour>
    <contour>
      <point x="1662" y="925" type="line"/>
      <point x="132" y="925" type="line"/>
      <point x="142" y="1055" type="line"/>
      <point x="1672" y="1055" type="line"/>
    </contour>
    <contour>
      <point x="1064" y="0" type="line"/>
      <point x="1324" y="1500" type="line"/>
      <point x="1465" y="1500" type="line"/>
      <point x="1205" y="0" type="line"/>
    </contour>
  </outline>
</glyph>
<glyph name="dollar" format="2">
  <advance width="1660"/>
  <unicode hex="0024"/>
  <outline>
    <contour>
      <point x="1381" y="396.0" type="line" smooth="yes"/>
      <point x="1381.0" y="532.0"/>
      <point x="1135" y="671"/>
      <point x="794" y="723" type="qcurve" smooth="yes"/>
      <point x="455" y="773"/>
      <point x="137" y="943"/>
      <point x="137" y="1120" type="qcurve" smooth="yes"/>
      <point x="137" y="1135" type="line" smooth="yes"/>
      <point x="137" y="1305.0"/>
      <point x="501" y="1524"/>
      <point x="808" y="1524.0" type="qcurve" smooth="yes"/>
      <point x="819" y="1524.0" type="line" smooth="yes"/>
      <point x="1151" y="1524"/>
      <point x="1492.0" y="1307.0"/>
      <point x="1487" y="1091.0" type="qcurve" smooth="yes"/>
      <point x="1487" y="1058.0" type="line"/>
      <point x="1316.0" y="1058" type="line"/>
      <point x="1316.0" y="1124" type="line" smooth="yes"/>
      <point x="1316.0" y="1257"/>
      <point x="1084" y="1390"/>
      <point x="823.0" y="1390" type="qcurve" smooth="yes"/>
      <point x="791.0" y="1390" type="line" smooth="yes"/>
      <point x="564" y="1390"/>
      <point x="316.0" y="1239.0"/>
      <point x="316.0" y="1135" type="qcurve" smooth="yes"/>
      <point x="316" y="1102" type="line" smooth="yes"/>
      <point x="316" y="1039"/>
      <point x="527" y="918"/>
      <point x="878" y="878" type="qcurve" smooth="yes"/>
      <point x="1238" y="840"/>
      <point x="1556.0" y="591.0"/>
      <point x="1556" y="408.0" type="qcurve" smooth="yes"/>
      <point x="1556" y="384.0" type="line" smooth="yes"/>
      <point x="1556.0" y="198.0"/>
      <point x="1163" y="-33"/>
      <point x="836" y="-33.0" type="qcurve" smooth="yes"/>
      <point x="830" y="-33.0" type="line" smooth="yes"/>
      <point x="477" y="-33"/>
      <point x="120" y="221.0"/>
      <point x="118" y="396.0" type="qcurve" smooth="yes"/>
      <point x="118" y="476.0" type="line"/>
      <point x="276.0" y="476.0" type="line"/>
      <point x="276.0" y="381" type="line" smooth="yes"/>
      <point x="276.0" y="259.0"/>
      <point x="535" y="72"/>
      <point x="827.0" y="72" type="qcurve" smooth="yes"/>
      <point x="835.0" y="72" type="line" smooth="yes"/>
      <point x="1122" y="72"/>
      <point x="1381.0" y="290.0"/>
      <point x="1381.0" y="369" type="qcurve" smooth="yes"/>
    </contour>
    <contour>
      <point x="793" y="-130" type="line"/>
      <point x="793" y="803" type="line"/>
      <point x="863" y="803" type="line"/>
      <point x="863" y="-130" type="line"/>
    </contour>
    <contour>
      <point x="783" y="812" type="line"/>
      <point x="783" y="1593" type="line"/>
      <point x="853" y="1593" type="line"/>
      <point x="853" y="812" type="line"/>
    </contour>
  </outline>
</glyph>
<glyph name="percent" format="2">
  <advance width="2709"/>
  <unicode hex="0025"/>
  <outline>
    <contour>
      <point x="613" y="594.0" type="line" smooth="yes"/>
      <point x="401" y="594.0"/>
      <point x="107" y="846.0"/>
      <point x="107" y="1046.0" type="qcurve" smooth="yes"/>
      <point x="107" y="1077.0" type="line" smooth="yes"/>
      <point x="107" y="1278.0"/>
      <point x="399" y="1540.0"/>
      <point x="610" y="1540.0" type="qcurve" smooth="yes"/>
      <point x="615" y="1540.0" type="line" smooth="yes"/>
      <point x="830" y="1540.0"/>
      <point x="1121" y="1278.0"/>
      <point x="1121" y="1077.0" type="qcurve" smooth="yes"/>
      <point x="1121" y="1046.0" type="line" smooth="yes"/>
      <point x="1121" y="846.0"/>
      <point x="834" y="594.0"/>
      <point x="618" y="594.0" type="qcurve" smooth="yes"/>
    </contour>
    <contour>
      <point x="614.0" y="743" type="line" smooth="yes"/>
      <point x="794.0" y="743"/>
      <point x="996.0" y="915"/>
      <point x="996.0" y="1053" type="qcurve" smooth="yes"/>
      <point x="996.0" y="1076" type="line" smooth="yes"/>
      <point x="996.0" y="1217"/>
      <point x="797.0" y="1396"/>
      <point x="614.0" y="1396" type="qcurve" smooth="yes"/>
      <point x="609.0" y="1396" type="line" smooth="yes"/>
      <point x="436.0" y="1396"/>
      <point x="239.0" y="1217"/>
      <point x="239.0" y="1076" type="qcurve" smooth="yes"/>
      <point x="239.0" y="1053" type="line" smooth="yes"/>
      <point x="239.0" y="915"/>
      <point x="432.0" y="743"/>
      <point x="609.0" y="743" type="qcurve" smooth="yes"/>
    </contour>
    <contour>
      <point x="2087" y="-29.0" type="line" smooth="yes"/>
      <point x="1875" y="-29.0"/>
      <point x="1591" y="223.0"/>
      <point x="1591" y="423.0" type="qcurve" smooth="yes"/>
      <point x="1591" y="454.0" type="line" smooth="yes"/>
      <point x="1591" y="655.0"/>
      <point x="1873" y="917.0"/>
      <point x="2084" y="917.0" type="qcurve" smooth="yes"/>
      <point x="2089" y="917.0" type="line" smooth="yes"/>
      <point x="2304" y="917.0"/>
      <point x="2605" y="655.0"/>
      <point x="2605" y="454.0" type="qcurve" smooth="yes"/>
      <point x="2605" y="423.0" type="line" smooth="yes"/>
      <point x="2605" y="223.0"/>
      <point x="2308" y="-29.0"/>
      <point x="2092" y="-29.0" type="qcurve" smooth="yes"/>
    </contour>
    <contour>
      <point x="2088.0" y="120" type="line" smooth="yes"/>
      <point x="2268.0" y="120"/>
      <point x="2470.0" y="292"/>
      <point x="2470.0" y="430" type="qcurve" smooth="yes"/>
      <point x="2470.0" y="453" type="line" smooth="yes"/>
      <point x="2470.0" y="594"/>
      <point x="2271.0" y="773"/>
      <point x="2088.0" y="773" type="qcurve" smooth="yes"/>
      <point x="2083.0" y="773" type="line" smooth="yes"/>
      <point x="1910.0" y="773"/>
      <point x="1713.0" y="594"/>
      <point x="1713.0" y="453" type="qcurve" smooth="yes"/>
      <point x="1713.0" y="430" type="line" smooth="yes"/>
      <point x="1713.0" y="292"/>
      <point x="1906.0" y="120"/>
      <point x="2083.0" y="120" type="qcurve" smooth="yes"/>
    </contour>
    <contour>
      <point x="746" y="0" type="line"/>
      <point x="1786" y="1500" type="line"/>
      <point x="1933" y="1500" type="line"/>
      <point x="893" y="0" type="line"/>
    </contour>
  </outline>
</glyph>
<glyph name="ampersand" format="2">
  <advance width="1785"/>
  <unicode hex="0026"/>
  <outline>
    <contour>
      <point x="1134" y="780" type="line"/>
      <point x="1755" y="1015" type="line"/>
      <point x="1783" y="887" type="line"/>
      <point x="1149" y="687" type="line"/>
    </contour>
    <contour>
      <point x="843" y="715" type="line"/>
      <point x="699" y="715" type="line" smooth="yes"/>
      <point x="524" y="715"/>
      <point x="281" y="581"/>
      <point x="281.0" y="443" type="qcurve" smooth="yes"/>
      <point x="281.0" y="444" type="line" smooth="yes"/>
      <point x="281.0" y="294.0"/>
      <point x="517.0" y="106.0"/>
      <point x="811.0" y="106.0" type="qcurve" smooth="yes"/>
      <point x="840.0" y="106.0" type="line" smooth="yes"/>
      <point x="1118.0" y="106.0"/>
      <point x="1427.0" y="326.0"/>
      <point x="1427.0" y="514" type="qcurve" smooth="yes"/>
      <point x="1427.0" y="517.0" type="line" smooth="yes"/>
      <point x="1427.0" y="596"/>
      <point x="1371" y="756"/>
      <point x="1349" y="794" type="qcurve"/>
      <point x="1454" y="821" type="line"/>
      <point x="1494" y="783"/>
      <point x="1582" y="571"/>
      <point x="1582.0" y="484.0" type="qcurve" smooth="yes"/>
      <point x="1582" y="479" type="line" smooth="yes"/>
      <point x="1582.0" y="312.0"/>
      <point x="1227" y="-35"/>
      <point x="821" y="-35" type="qcurve" smooth="yes"/>
      <point x="800" y="-35.0" type="line" smooth="yes"/>
      <point x="420.0" y="-35"/>
      <point x="86" y="222.0"/>
      <point x="86.0" y="405" type="qcurve" smooth="yes"/>
      <point x="86" y="424" type="line" smooth="yes"/>
      <point x="86" y="606.0"/>
      <point x="317.0" y="785.0"/>
      <point x="493" y="795" type="qcurve"/>
      <point x="378.0" y="816.0"/>
      <point x="237.0" y="974.0"/>
      <point x="237" y="1112" type="qcurve" smooth="yes"/>
      <point x="237" y="1138" type="line" smooth="yes"/>
      <point x="237" y="1305"/>
      <point x="495" y="1523"/>
      <point x="675" y="1523" type="qcurve" smooth="yes"/>
      <point x="681" y="1523" type="line" smooth="yes"/>
      <point x="876" y="1523"/>
      <point x="1141.0" y="1326"/>
      <point x="1141" y="1149" type="qcurve" smooth="yes"/>
      <point x="1141" y="1123" type="line"/>
      <point x="989.0" y="1125" type="line"/>
      <point x="989.0" y="1153" type="line" smooth="yes"/>
      <point x="989.0" y="1260"/>
      <point x="845.0" y="1392.0"/>
      <point x="700.0" y="1392.0" type="qcurve" smooth="yes"/>
      <point x="696.0" y="1392.0" type="line" smooth="yes"/>
      <point x="561.0" y="1392.0"/>
      <point x="395.0" y="1230"/>
      <point x="395.0" y="1099" type="qcurve" smooth="yes"/>
      <point x="395" y="1079" type="line" smooth="yes"/>
      <point x="395" y="951.0"/>
      <point x="539.0" y="842.0"/>
      <point x="654" y="837" type="qcurve" smooth="yes"/>
      <point x="826" y="838" type="line"/>
    </contour>
  </outline>
</glyph>
<glyph name="quotesingle" format="2">
  <advance width="712"/>
  <unicode hex="0027"/>
  <outline>
    <contour>
      <point x="257" y="842" type="line"/>
      <point x="257" y="1500" type="line"/>
      <point x="456" y="1500" type="line"/>
      <point x="456" y="842" type="line"/>
    </contour>
  </outline>
</glyph>
<glyph name="parenleft" format="2">
  <advance width="1040"/>
  <unicode hex="0028"/>
  <outline>
    <contour>
      <point x="837" y="-357" type="line"/>
      <point x="113" y="41.0"/>
      <point x="114" y="1150.0"/>
      <point x="821" y="1551" type="qcurve"/>
      <point x="901" y="1389" type="line"/>
      <point x="241" y="1000.0"/>
      <point x="291" y="170.0"/>
      <point x="924" y="-199" type="qcurve"/>
    </contour>
  </outline>
</glyph>
<glyph name="parenright" format="2">
  <advance width="1040"/>
  <unicode hex="0029"/>
  <outline>
    <contour>
      <point x="203" y="-357" type="qcurve"/>
      <point x="116" y="-199" type="line"/>
      <point x="749" y="170"/>
      <point x="799" y="1000"/>
      <point x="139" y="1389" type="qcurve"/>
      <point x="219" y="1551" type="line"/>
      <point x="926" y="1150"/>
      <point x="927" y="41"/>
    </contour>
  </outline>
</glyph>
<glyph name="asterisk" format="2">
  <advance width="1355"/>
  <unicode hex="002A"/>
  <outline>
    <contour>
      <point x="729.0" y="997" type="line"/>
      <point x="413" y="549" type="line"/>
      <point x="269" y="658" type="line"/>
      <point x="637" y="1066.0" type="line"/>
      <point x="130" y="1175" type="line"/>
      <point x="195" y="1352" type="line"/>
      <point x="671" y="1186" type="line"/>
      <point x="635" y="1662.0" type="line"/>
      <point x="823" y="1662.0" type="line"/>
      <point x="786" y="1186" type="line"/>
      <point x="1230" y="1351" type="line"/>
      <point x="1290" y="1173" type="line"/>
      <point x="818" y="1069.0" type="line"/>
      <point x="1195" y="666" type="line"/>
      <point x="1044" y="558" type="line"/>
    </contour>
  </outline>
</glyph>
<glyph name="plus" format="2">
  <advance width="1920"/>
  <unicode hex="002B"/>
  <outline>
    <contour>
      <point x="1690" y="680" type="line"/>
      <point x="230" y="680" type="line"/>
      <point x="230" y="845" type="line"/>
      <point x="1690" y="845" type="line"/>
    </contour>
    <contour>
      <point x="1052.0" y="1442.0" type="line"/>
      <point x="1052.0" y="82.0" type="line"/>
      <point x="867.0" y="82.0" type="line"/>
      <point x="867.0" y="1442.0" type="line"/>
    </contour>
  </outline>
</glyph>
<glyph name="comma" format="2">
  <advance width="1007"/>
  <unicode hex="002C"/>
  <outline>
    <contour>
      <point x="187.0" y="-137" type="line"/>
      <point x="450" y="244" type="line" smooth="yes"/>
      <point x="484" y="301"/>
      <point x="558.0" y="383.0"/>
      <point x="581" y="383" type="qcurve" smooth="yes"/>
      <point x="581" y="383.0" type="line" smooth="yes"/>
      <point x="626" y="383.0"/>
      <point x="687.0" y="319.0"/>
      <point x="660" y="243.0" type="qcurve" smooth="yes"/>
      <point x="655.0" y="229" type="line" smooth="yes"/>
      <point x="638.0" y="171.0"/>
      <point x="344" y="-118"/>
      <point x="251" y="-197" type="qcurve"/>
    </contour>
  </outline>
</glyph>
<glyph name="period" format="2">
  <advance width="1007"/>
  <unicode hex="002E"/>
  <outline>
    <contour>
      <point x="503" y="-10.0" type="line" smooth="yes"/>
      <point x="553" y="-10.0"/>
      <point x="628.0" y="84.0"/>
      <point x="628" y="162.0" type="qcurve" smooth="yes"/>
      <point x="628" y="192.0" type="line" smooth="yes"/>
      <point x="628.0" y="273.0"/>
      <point x="556" y="365.0"/>
      <point x="503" y="365.0" type="qcurve" smooth="yes"/>
      <point x="501" y="365.0" type="line" smooth="yes"/>
      <point x="452" y="365.0"/>
      <point x="379.0" y="273.0"/>
      <point x="379.0" y="192.0" type="qcurve" smooth="yes"/>
      <point x="379.0" y="162.0" type="line" smooth="yes"/>
      <point x="379.0" y="79.0"/>
      <point x="450" y="-10.0"/>
      <point x="501" y="-10.0" type="qcurve" smooth="yes"/>
    </contour>
  </outline>
</glyph>
<glyph name="slash" format="2">
  <advance width="1060"/>
  <unicode hex="002F"/>
  <outline>
    <contour>
      <point x="-54" y="0" type="line"/>
      <point x="966" y="1500" type="line"/>
      <point x="1130" y="1500" type="line"/>
      <point x="110" y="0" type="line"/>
    </contour>
  </outline>
</glyph>
<glyph name="zero" format="2">
  <advance width="1681"/>
  <unicode hex="0030"/>
  <outline>
    <contour>
      <point x="839" y="-25.0" type="line" smooth="yes"/>
      <point x="514.0" y="-25"/>
      <point x="123" y="402.0"/>
      <point x="123" y="724.0" type="qcurve" smooth="yes"/>
      <point x="123" y="775.0" type="line" smooth="yes"/>
      <point x="123" y="1097.0"/>
      <point x="509.0" y="1524.0"/>
      <point x="834" y="1524.0" type="qcurve" smooth="yes"/>
      <point x="842" y="1524.0" type="line" smooth="yes"/>
      <point x="1172.0" y="1524.0"/>
      <point x="1558" y="1097.0"/>
      <point x="1558" y="775.0" type="qcurve" smooth="yes"/>
      <point x="1558" y="724.0" type="line" smooth="yes"/>
      <point x="1558" y="402.0"/>
      <point x="1177.0" y="-25.0"/>
      <point x="847" y="-25.0" type="qcurve" smooth="yes"/>
    </contour>
    <contour>
      <point x="844" y="78.0" type="line" smooth="yes"/>
      <point x="1106" y="78"/>
      <point x="1372" y="430.0"/>
      <point x="1372" y="715.0" type="qcurve" smooth="yes"/>
      <point x="1372" y="759.0" type="line" smooth="yes"/>
      <point x="1372" y="1044.0"/>
      <point x="1111" y="1401.0"/>
      <point x="844" y="1401.0" type="qcurve" smooth="yes"/>
      <point x="836" y="1401.0" type="line" smooth="yes"/>
      <point x="577" y="1401.0"/>
      <point x="310" y="1044.0"/>
      <point x="310" y="759.0" type="qcurve" smooth="yes"/>
      <point x="310" y="715.0" type="line" smooth="yes"/>
      <point x="310" y="430.0"/>
      <point x="572" y="78"/>
      <point x="836" y="78.0" type="qcurve" smooth="yes"/>
    </contour>
  </outline>
</glyph>
<glyph name="two" format="2">
  <advance width="1427"/>
  <unicode hex="0032"/>
  <outline>
    <contour>
      <point x="1395" y="0" type="line"/>
      <point x="54" y="0" type="line"/>
      <point x="54" y="92" type="line"/>
      <point x="869" y="704" type="line" smooth="yes"/>
      <point x="971" y="778"/>
      <point x="1127.0" y="985.0"/>
      <point x="1127.0" y="1098.0" type="qcurve" smooth="yes"/>
      <point x="1127.0" y="1144.0" type="line" smooth="yes"/>
      <point x="1127" y="1254"/>
      <point x="916.0" y="1400.0"/>
      <point x="731" y="1400.0" type="qcurve" smooth="yes"/>
      <point x="714" y="1400.0" type="line" smooth="yes"/>
      <point x="519" y="1400"/>
      <point x="298" y="1242"/>
      <point x="296" y="1108.0" type="qcurve" smooth="yes"/>
      <point x="297.0" y="978.0" type="line"/>
      <point x="105" y="978" type="line"/>
      <point x="107" y="1135.0" type="line" smooth="yes"/>
      <point x="108" y="1301"/>
      <point x="415.0" y="1527.0"/>
      <point x="690" y="1527.0" type="qcurve" smooth="yes"/>
      <point x="743" y="1527.0" type="line" smooth="yes"/>
      <point x="1013.0" y="1527.0"/>
      <point x="1328.0" y="1328.0"/>
      <point x="1328.0" y="1162.0" type="qcurve" smooth="yes"/>
      <point x="1328.0" y="1132.0" type="line" smooth="yes"/>
      <point x="1328.0" y="972.0"/>
      <point x="1153" y="711"/>
      <point x="1026" y="609.0" type="qcurve" smooth="yes"/>
      <point x="344" y="138" type="line"/>
      <point x="1395" y="138" type="line"/>
    </contour>
  </outline>
</glyph>
<glyph name="three" format="2">
  <advance width="1408"/>
  <unicode hex="0033"/>
  <outline>
    <contour>
      <point x="753" y="757" type="qcurve" smooth="yes"/>
      <point x="438" y="758.0" type="line"/>
      <point x="438" y="874.0" type="line"/>
      <point x="752" y="874.0" type="line" smooth="yes"/>
      <point x="894.0" y="873.0"/>
      <point x="1097.0" y="972.0"/>
      <point x="1097.0" y="1099.0" type="qcurve" smooth="yes"/>
      <point x="1097.0" y="1134.0" type="line" smooth="yes"/>
      <point x="1097.0" y="1242.0"/>
      <point x="903.0" y="1385.0"/>
      <point x="687.0" y="1385.0" type="qcurve"/>
      <point x="683.0" y="1385.0" type="line"/>
      <point x="469.0" y="1385.0"/>
      <point x="242" y="1190"/>
      <point x="235.0" y="1083" type="qcurve" smooth="yes"/>
      <point x="233.0" y="1065.0" type="line"/>
      <point x="69" y="1065.0" type="line"/>
      <point x="73" y="1125.0" type="line" smooth="yes"/>
      <point x="81" y="1302.0"/>
      <point x="378.0" y="1527.0"/>
      <point x="667" y="1527.0" type="qcurve"/>
      <point x="684" y="1527.0" type="line"/>
      <point x="980.0" y="1527.0"/>
      <point x="1294.0" y="1339.0"/>
      <point x="1294" y="1174.0" type="qcurve" smooth="yes"/>
      <point x="1294" y="1147.0" type="line" smooth="yes"/>
      <point x="1294.0" y="993.0"/>
      <point x="1058" y="848.0"/>
      <point x="960" y="839.0" type="qcurve"/>
      <point x="1093" y="814.0"/>
      <point x="1352.0" y="627.0"/>
      <point x="1352" y="463.0" type="qcurve" smooth="yes"/>
      <point x="1352" y="433.0" type="line" smooth="yes"/>
      <point x="1352.0" y="234.0"/>
      <point x="999.0" y="-40.0"/>
      <point x="722" y="-40" type="qcurve"/>
      <point x="716" y="-40.0" type="line"/>
      <point x="390.0" y="-40"/>
      <point x="52" y="211.0"/>
      <point x="41" y="377.0" type="qcurve" smooth="yes"/>
      <point x="37" y="467.0" type="line"/>
      <point x="194.0" y="467.0" type="line"/>
      <point x="196.0" y="408" type="line" smooth="yes"/>
      <point x="205.0" y="268"/>
      <point x="456.0" y="74.0"/>
      <point x="672.0" y="74.0" type="qcurve"/>
      <point x="687.0" y="74" type="line"/>
      <point x="927.0" y="74.0"/>
      <point x="1152.0" y="287.0"/>
      <point x="1152.0" y="467.0" type="qcurve" smooth="yes"/>
      <point x="1152.0" y="442.0" type="line" smooth="yes"/>
      <point x="1152.0" y="575.0"/>
      <point x="937" y="755"/>
    </contour>
  </outline>
</glyph>
<glyph name="four" format="2">
  <advance width="1517"/>
  <unicode hex="0034"/>
  <outline>
    <contour>
      <point x="946" y="0.0" type="line"/>
      <point x="966" y="1510.0" type="line"/>
      <point x="1126" y="1507.0" type="line"/>
      <point x="1126" y="2.0" type="line"/>
    </contour>
    <contour>
      <point x="1453" y="535" type="line"/>
      <point x="1453" y="398" type="line"/>
      <point x="64" y="398" type="line"/>
      <point x="48" y="570" type="line"/>
      <point x="873" y="1471" type="line"/>
      <point x="1003" y="1417" type="line"/>
      <point x="217" y="537" type="line"/>
    </contour>
  </outline>
</glyph>
<glyph name="five" format="2">
  <advance width="1412"/>
  <unicode hex="0035"/>
  <outline>
    <contour>
      <point x="785" y="1019" type="line" smooth="yes"/>
      <point x="1091.0" y="1019.0"/>
      <point x="1366.0" y="756.0"/>
      <point x="1366" y="510.0" type="qcurve" smooth="yes"/>
      <point x="1366" y="500.0" type="line" smooth="yes"/>
      <point x="1366.0" y="269.0"/>
      <point x="1007.0" y="-25.0"/>
      <point x="701" y="-25.0" type="qcurve" smooth="yes"/>
      <point x="672" y="-25.0" type="line" smooth="yes"/>
      <point x="383.0" y="-25"/>
      <point x="43" y="195.0"/>
      <point x="29" y="352.0" type="qcurve" smooth="yes"/>
      <point x="24.0" y="468.0" type="line"/>
      <point x="208" y="470.0" type="line"/>
      <point x="208.0" y="348" type="line" smooth="yes"/>
      <point x="206" y="240.0"/>
      <point x="486.0" y="78"/>
      <point x="693" y="78.0" type="qcurve" smooth="yes"/>
      <point x="702" y="78" type="line" smooth="yes"/>
      <point x="914.0" y="78.0"/>
      <point x="1204.0" y="256.0"/>
      <point x="1204.0" y="476" type="qcurve" smooth="yes"/>
      <point x="1204" y="510.0" type="line" smooth="yes"/>
      <point x="1204.0" y="740.0"/>
      <point x="934.0" y="912.0"/>
      <point x="740" y="912.0" type="qcurve" smooth="yes"/>
      <point x="686" y="912.0" type="line" smooth="yes"/>
      <point x="524.0" y="912.0"/>
      <point x="301" y="770.0"/>
      <point x="251" y="681.0" type="qcurve"/>
      <point x="63" y="682.0" type="line"/>
      <point x="105" y="1500.0" type="line"/>
      <point x="1249" y="1500.0" type="line"/>
      <point x="1249" y="1372.0" type="line"/>
      <point x="237" y="1372" type="line"/>
      <point x="198" y="816" type="line"/>
      <point x="229" y="870"/>
      <point x="546.0" y="1019.0"/>
      <point x="721" y="1019.0" type="qcurve" smooth="yes"/>
    </contour>
  </outline>
</glyph>
<glyph name="six" format="2">
  <advance width="1526"/>
  <unicode hex="0036"/>
  <outline>
    <contour>
      <point x="301" y="652" type="qcurve"/>
      <point x="301" y="489.0" type="line" smooth="yes"/>
      <point x="301" y="299"/>
      <point x="560.0" y="88"/>
      <point x="819" y="88.0" type="qcurve" smooth="yes"/>
      <point x="828" y="88.0" type="line" smooth="yes"/>
      <point x="1045" y="88"/>
      <point x="1316" y="299"/>
      <point x="1316" y="455.0" type="qcurve" smooth="yes"/>
      <point x="1316" y="485.0" type="line" smooth="yes"/>
      <point x="1316" y="652"/>
      <point x="1041" y="849"/>
      <point x="812" y="849.0" type="qcurve" smooth="yes"/>
      <point x="802" y="849.0" type="line" smooth="yes"/>
      <point x="598" y="849"/>
      <point x="250" y="617"/>
      <point x="300" y="517.0" type="qcurve" smooth="yes"/>
      <point x="301" y="479.0" type="line"/>
      <point x="236" y="485" type="line"/>
      <point x="236" y="519" type="line" smooth="yes"/>
      <point x="236" y="727"/>
      <point x="605" y="958"/>
      <point x="861" y="958.0" type="qcurve" smooth="yes"/>
      <point x="868" y="958.0" type="line" smooth="yes"/>
      <point x="1183" y="958"/>
      <point x="1482.0" y="715.0"/>
      <point x="1482" y="489.0" type="qcurve" smooth="yes"/>
      <point x="1482" y="454.0" type="line" smooth="yes"/>
      <point x="1482.0" y="245.0"/>
      <point x="1126" y="-25.0"/>
      <point x="825" y="-25.0" type="qcurve" smooth="yes"/>
      <point x="816" y="-25.0" type="line" smooth="yes"/>
      <point x="480" y="-25.0"/>
      <point x="147" y="273"/>
      <point x="139" y="575" type="qcurve" smooth="yes"/>
      <point x="137" y="598" type="line" smooth="yes"/>
      <point x="125" y="1020.0"/>
      <point x="779" y="1501.0"/>
      <point x="1198" y="1510" type="qcurve" smooth="yes"/>
      <point x="1274" y="1510" type="line"/>
      <point x="1274" y="1358" type="line"/>
      <point x="1223" y="1358" type="line" smooth="yes"/>
      <point x="802" y="1358"/>
      <point x="280" y="986.0"/>
    </contour>
  </outline>
</glyph>
<glyph name="seven" format="2">
  <advance width="1293"/>
  <unicode hex="0037"/>
  <outline>
    <contour>
      <point x="-22" y="1500" type="line"/>
      <point x="1281" y="1500" type="line"/>
      <point x="1284" y="1347" type="line"/>
      <point x="514" y="0" type="line"/>
      <point x="317" y="0" type="line"/>
      <point x="1101" y="1370" type="line"/>
      <point x="-21" y="1370" type="line"/>
    </contour>
  </outline>
</glyph>
<glyph name="eight" format="2">
  <advance width="1619"/>
  <unicode hex="0038"/>
  <outline>
    <contour>
      <point x="798.0" y="-25" type="line" smooth="yes"/>
      <point x="486.0" y="-25"/>
      <point x="59" y="222"/>
      <point x="59.0" y="407" type="qcurve" smooth="yes"/>
      <point x="59.0" y="419" type="line" smooth="yes"/>
      <point x="59" y="598"/>
      <point x="480.0" y="821.0"/>
      <point x="791.0" y="821" type="qcurve" smooth="yes"/>
      <point x="802.0" y="821" type="line" smooth="yes"/>
      <point x="1122.0" y="821.0"/>
      <point x="1560" y="598"/>
      <point x="1560.0" y="419" type="qcurve" smooth="yes"/>
      <point x="1560.0" y="407" type="line" smooth="yes"/>
      <point x="1560" y="222"/>
      <point x="1119.0" y="-25"/>
      <point x="808.0" y="-25" type="qcurve" smooth="yes"/>
    </contour>
    <contour>
      <point x="810" y="79.0" type="line" smooth="yes"/>
      <point x="1071.0" y="79.0"/>
      <point x="1395" y="263"/>
      <point x="1395.0" y="407.0" type="qcurve" smooth="yes"/>
      <point x="1395.0" y="428.0" type="line" smooth="yes"/>
      <point x="1395" y="573"/>
      <point x="1081" y="736"/>
      <point x="803" y="736.0" type="qcurve" smooth="yes"/>
      <point x="790" y="736.0" type="line" smooth="yes"/>
      <point x="529" y="736"/>
      <point x="227" y="573"/>
      <point x="227" y="428.0" type="qcurve" smooth="yes"/>
      <point x="227" y="407.0" type="line" smooth="yes"/>
      <point x="227" y="263"/>
      <point x="542.0" y="79"/>
      <point x="797" y="79.0" type="qcurve" smooth="yes"/>
    </contour>
    <contour>
      <point x="797.0" y="756" type="line" smooth="yes"/>
      <point x="519.0" y="756.0"/>
      <point x="142.0" y="965"/>
      <point x="142.0" y="1126" type="qcurve" smooth="yes"/>
      <point x="142.0" y="1150" type="line" smooth="yes"/>
      <point x="142.0" y="1312"/>
      <point x="525.0" y="1523"/>
      <point x="791.0" y="1523" type="qcurve" smooth="yes"/>
      <point x="801.0" y="1523" type="line" smooth="yes"/>
      <point x="1076.0" y="1523"/>
      <point x="1474" y="1312"/>
      <point x="1474.0" y="1150" type="qcurve" smooth="yes"/>
      <point x="1474.0" y="1126" type="line" smooth="yes"/>
      <point x="1474.0" y="965.0"/>
      <point x="1090.0" y="756.0"/>
      <point x="807.0" y="756" type="qcurve" smooth="yes"/>
    </contour>
    <contour>
      <point x="800.0" y="848" type="line" smooth="yes"/>
      <point x="1027" y="848"/>
      <point x="1304.0" y="993"/>
      <point x="1304.0" y="1112" type="qcurve" smooth="yes"/>
      <point x="1304.0" y="1131" type="line" smooth="yes"/>
      <point x="1304.0" y="1250"/>
      <point x="1034" y="1396"/>
      <point x="800.0" y="1396" type="qcurve" smooth="yes"/>
      <point x="793.0" y="1396" type="line" smooth="yes"/>
      <point x="579" y="1396"/>
      <point x="314.0" y="1250"/>
      <point x="314.0" y="1131" type="qcurve" smooth="yes"/>
      <point x="314.0" y="1112" type="line" smooth="yes"/>
      <point x="314.0" y="993"/>
      <point x="574" y="848"/>
      <point x="793.0" y="848" type="qcurve" smooth="yes"/>
    </contour>
  </outline>
</glyph>
<glyph name="colon" format="2">
  <advance width="1080"/>
  <unicode hex="003A"/>
  <outline>
    <contour>
      <point x="539" y="-10" type="line" smooth="yes"/>
      <point x="585" y="-10"/>
      <point x="649.0" y="80.0"/>
      <point x="649" y="147" type="qcurve" smooth="yes"/>
      <point x="649" y="179" type="line" smooth="yes"/>
      <point x="649" y="246"/>
      <point x="588" y="338"/>
      <point x="540" y="338" type="qcurve" smooth="yes"/>
      <point x="536" y="338" type="line" smooth="yes"/>
      <point x="492" y="338"/>
      <point x="431" y="246"/>
      <point x="431" y="179" type="qcurve" smooth="yes"/>
      <point x="431" y="147" type="line" smooth="yes"/>
      <point x="431.0" y="79.0"/>
      <point x="490" y="-10"/>
      <point x="536" y="-10" type="qcurve" smooth="yes"/>
    </contour>
    <contour>
      <point x="539" y="643" type="line" smooth="yes"/>
      <point x="585" y="643"/>
      <point x="649.0" y="733.0"/>
      <point x="649" y="800" type="qcurve" smooth="yes"/>
      <point x="649" y="832" type="line" smooth="yes"/>
      <point x="649" y="899"/>
      <point x="588" y="991"/>
      <point x="540" y="991" type="qcurve" smooth="yes"/>
      <point x="536" y="991" type="line" smooth="yes"/>
      <point x="492" y="991"/>
      <point x="431" y="899"/>
      <point x="431" y="832" type="qcurve" smooth="yes"/>
      <point x="431" y="800" type="line" smooth="yes"/>
      <point x="431.0" y="732.0"/>
      <point x="490" y="643"/>
      <point x="536" y="643" type="qcurve" smooth="yes"/>
    </contour>
  </outline>
</glyph>
<glyph name="semicolon" format="2">
  <advance width="1007"/>
  <unicode hex="003B"/>
  <outline>
    <contour>
      <point x="486" y="643.0" type="line" smooth="yes"/>
      <point x="532" y="643.0"/>
      <point x="596.0" y="733.0"/>
      <point x="596" y="800" type="qcurve" smooth="yes"/>
      <point x="596" y="832" type="line" smooth="yes"/>
      <point x="596" y="899"/>
      <point x="535" y="991"/>
      <point x="487" y="991" type="qcurve" smooth="yes"/>
      <point x="483" y="991" type="line" smooth="yes"/>
      <point x="439" y="991"/>
      <point x="378" y="899"/>
      <point x="378" y="832" type="qcurve" smooth="yes"/>
      <point x="378" y="800" type="line" smooth="yes"/>
      <point x="378.0" y="732.0"/>
      <point x="437" y="643.0"/>
      <point x="483" y="643.0" type="qcurve" smooth="yes"/>
    </contour>
    <contour>
      <point x="117.0" y="-138" type="line"/>
      <point x="361.0" y="239" type="line" smooth="yes"/>
      <point x="393.0" y="295"/>
      <point x="485.0" y="376.0"/>
      <point x="506.0" y="376" type="qcurve" smooth="yes"/>
      <point x="506.0" y="376.0" type="line" smooth="yes"/>
      <point x="563.0" y="376.0"/>
      <point x="626.0" y="295"/>
      <point x="599.0" y="220.0" type="qcurve" smooth="yes"/>
      <point x="594.0" y="206" type="line" smooth="yes"/>
      <point x="577.0" y="149.0"/>
      <point x="283.0" y="-119"/>
      <point x="178.0" y="-197" type="qcurve"/>
    </contour>
  </outline>
</glyph>
<glyph name="question" format="2">
  <advance width="1378"/>
  <unicode hex="003F"/>
  <outline>
    <contour>
      <point x="586" y="-10.0" type="line" smooth="yes"/>
      <point x="629" y="-10.0"/>
      <point x="694.0" y="75.0"/>
      <point x="694" y="146.0" type="qcurve" smooth="yes"/>
      <point x="694" y="176.0" type="line" smooth="yes"/>
      <point x="694.0" y="250.0"/>
      <point x="632" y="333.0"/>
      <point x="586" y="333.0" type="qcurve" smooth="yes"/>
      <point x="584" y="333.0" type="line" smooth="yes"/>
      <point x="542" y="333.0"/>
      <point x="480.0" y="250.0"/>
      <point x="480.0" y="176.0" type="qcurve" smooth="yes"/>
      <point x="480.0" y="146.0" type="line" smooth="yes"/>
      <point x="480.0" y="70.0"/>
      <point x="540" y="-10.0"/>
      <point x="584" y="-10.0" type="qcurve" smooth="yes"/>
    </contour>
    <contour>
      <point x="654" y="520" type="line"/>
      <point x="474" y="520" type="line"/>
      <point x="474.0" y="739" type="line"/>
      <point x="789.0" y="734"/>
      <point x="1089.0" y="925"/>
      <point x="1089.0" y="1068" type="qcurve" smooth="yes"/>
      <point x="1089.0" y="1076" type="line" smooth="yes"/>
      <point x="1089.0" y="1227"/>
      <point x="858.0" y="1383.0"/>
      <point x="655.0" y="1383" type="qcurve" smooth="yes"/>
      <point x="648.0" y="1383" type="line" smooth="yes"/>
      <point x="434.0" y="1383.0"/>
      <point x="191.0" y="1237"/>
      <point x="197.0" y="1125" type="qcurve" smooth="yes"/>
      <point x="198" y="1062.0" type="line"/>
      <point x="-3" y="1064" type="line"/>
      <point x="-3" y="1125" type="line" smooth="yes"/>
      <point x="-3" y="1304"/>
      <point x="371" y="1522.0"/>
      <point x="675" y="1522" type="qcurve" smooth="yes"/>
      <point x="683" y="1522" type="line" smooth="yes"/>
      <point x="972.0" y="1523.0"/>
      <point x="1324.0" y="1295.0"/>
      <point x="1324.0" y="1081" type="qcurve" smooth="yes"/>
      <point x="1324.0" y="1069" type="line" smooth="yes"/>
      <point x="1324.0" y="868.0"/>
      <point x="983.0" y="613"/>
      <point x="654.0" y="619" type="qcurve"/>
    </contour>
  </outline>
</glyph>
<glyph name="at" format="2">
  <advance width="2168"/>
  <unicode hex="0040"/>
  <outline>
    <contour>
      <point x="1354" y="689" type="qcurve" smooth="yes"/>
      <point x="1349" y="660" type="line" smooth="yes"/>
      <point x="1314" y="455"/>
      <point x="1050" y="251"/>
      <point x="890" y="251" type="qcurve" smooth="yes"/>
      <point x="884" y="251" type="line" smooth="yes"/>
      <point x="709.0" y="251"/>
      <point x="541" y="541"/>
      <point x="589" y="741" type="qcurve" smooth="yes"/>
      <point x="596" y="770" type="line" smooth="yes"/>
      <point x="639" y="950"/>
      <point x="851" y="1121"/>
      <point x="1029" y="1121" type="qcurve" smooth="yes"/>
      <point x="1036" y="1121" type="line" smooth="yes"/>
      <point x="1194" y="1121"/>
      <point x="1386" y="875"/>
    </contour>
    <contour>
      <point x="1270" y="664" type="line" smooth="yes"/>
      <point x="1300" y="820"/>
      <point x="1156.0" y="1022.0"/>
      <point x="1032" y="1022" type="qcurve" smooth="yes"/>
      <point x="1028" y="1022" type="line" smooth="yes"/>
      <point x="954" y="1022.0"/>
      <point x="804" y="913"/>
      <point x="767" y="763" type="qcurve" smooth="yes"/>
      <point x="762" y="743" type="line" smooth="yes"/>
      <point x="716" y="557"/>
      <point x="821.0" y="345"/>
      <point x="961" y="345" type="qcurve" smooth="yes"/>
      <point x="965" y="345" type="line" smooth="yes"/>
      <point x="1070" y="345"/>
      <point x="1240" y="495"/>
      <point x="1267" y="646" type="qcurve" smooth="yes"/>
    </contour>
    <contour>
      <point x="1249" y="558" type="qcurve" smooth="yes"/>
      <point x="1377" y="1113" type="line"/>
      <point x="1538" y="1113" type="line"/>
      <point x="1432" y="516" type="line" smooth="yes"/>
      <point x="1421" y="456"/>
      <point x="1476" y="365"/>
      <point x="1533" y="365" type="qcurve" smooth="yes"/>
      <point x="1729" y="365"/>
      <point x="2001" y="598"/>
      <point x="2001" y="811" type="qcurve" smooth="yes"/>
      <point x="2001" y="1106"/>
      <point x="1506" y="1464"/>
      <point x="1090" y="1464" type="qcurve" smooth="yes"/>
      <point x="687" y="1464"/>
      <point x="140" y="1001"/>
      <point x="140" y="675" type="qcurve" smooth="yes"/>
      <point x="140" y="297"/>
      <point x="712" y="-112"/>
      <point x="1072" y="-112" type="qcurve" smooth="yes"/>
      <point x="1338" y="-112"/>
      <point x="1660" y="13"/>
      <point x="1727" y="89" type="qcurve"/>
      <point x="1774" y="34" type="line"/>
      <point x="1696" y="-47"/>
      <point x="1365.0" y="-182.0"/>
      <point x="1067" y="-182" type="qcurve" smooth="yes"/>
      <point x="672" y="-182"/>
      <point x="50" y="282"/>
      <point x="50" y="675" type="qcurve" smooth="yes"/>
      <point x="50" y="1057"/>
      <point x="644" y="1529"/>
      <point x="1090" y="1529" type="qcurve" smooth="yes"/>
      <point x="1575" y="1529"/>
      <point x="2091" y="1130"/>
      <point x="2091" y="830" type="qcurve" smooth="yes"/>
      <point x="2091" y="563"/>
      <point x="1688" y="269"/>
      <point x="1428" y="269" type="qcurve" smooth="yes"/>
      <point x="1289" y="269"/>
      <point x="1238" y="449"/>
    </contour>
  </outline>
</glyph>
<glyph name="A" format="2">
  <advance width="1741"/>
  <unicode hex="0041"/>
  <outline>
    <contour>
      <point x="1522" y="350" type="line"/>
      <point x="250" y="350" type="line"/>
      <point x="268" y="495" type="line"/>
      <point x="1503" y="495" type="line"/>
    </contour>
    <contour>
      <point x="966" y="1500" type="line"/>
      <point x="1711" y="0" type="line"/>
      <point x="1509" y="0" type="line"/>
      <point x="888" y="1260" type="line"/>
      <point x="861" y="1261" type="line"/>
      <point x="253" y="0" type="line"/>
      <point x="30" y="0" type="line"/>
      <point x="774" y="1499" type="line"/>
    </contour>
  </outline>
</glyph>
<glyph name="B" format="2">
  <advance width="1725"/>
  <unicode hex="0042"/>
  <outline>
    <contour>
      <point x="330" y="0" type="line"/>
      <point x="330" y="1500" type="line"/>
      <point x="519" y="1500" type="line"/>
      <point x="519" y="0" type="line"/>
    </contour>
    <contour>
      <point x="1129" y="825" type="line"/>
      <point x="1331" y="835"/>
      <point x="1617" y="628"/>
      <point x="1617" y="442" type="qcurve" smooth="yes"/>
      <point x="1617" y="415" type="line" smooth="yes"/>
      <point x="1617" y="231"/>
      <point x="1366.0" y="0.0"/>
      <point x="1163" y="0" type="qcurve" smooth="yes"/>
      <point x="409" y="0" type="line"/>
      <point x="409" y="129.0" type="line"/>
      <point x="1066" y="129.0" type="line" smooth="yes"/>
      <point x="1218" y="129"/>
      <point x="1455" y="299"/>
      <point x="1455" y="436.0" type="qcurve" smooth="yes"/>
      <point x="1455" y="455.0" type="line" smooth="yes"/>
      <point x="1455" y="578"/>
      <point x="1200" y="730"/>
      <point x="1066" y="730.0" type="qcurve" smooth="yes"/>
      <point x="409" y="730.0" type="line"/>
      <point x="409" y="868.0" type="line"/>
      <point x="978" y="868.0" type="line" smooth="yes"/>
      <point x="1152" y="868.0"/>
      <point x="1320" y="987"/>
      <point x="1320" y="1119.0" type="qcurve" smooth="yes"/>
      <point x="1320" y="1126.0" type="line" smooth="yes"/>
      <point x="1320" y="1233"/>
      <point x="1161.0" y="1370.0"/>
      <point x="998" y="1370.0" type="qcurve" smooth="yes"/>
      <point x="409" y="1370.0" type="line"/>
      <point x="409" y="1500" type="line"/>
      <point x="1128" y="1500" type="line" smooth="yes"/>
      <point x="1305.0" y="1500.0"/>
      <point x="1488" y="1309"/>
      <point x="1488" y="1151" type="qcurve" smooth="yes"/>
      <point x="1488" y="1140" type="line" smooth="yes"/>
      <point x="1488" y="972"/>
      <point x="1308" y="786.0"/>
      <point x="1163" y="786.0" type="qcurve"/>
    </contour>
  </outline>
</glyph>
<glyph name="C" format="2">
  <advance width="1943"/>
  <unicode hex="0043"/>
  <outline>
    <contour>
      <point x="1042" y="104.0" type="line" smooth="yes"/>
      <point x="1350" y="104.0"/>
      <point x="1671" y="363"/>
      <point x="1688" y="574.0" type="qcurve" smooth="yes"/>
      <point x="1690" y="562.0" type="line"/>
      <point x="1873" y="562.0" type="line"/>
      <point x="1870" y="557.0" type="line" smooth="yes"/>
      <point x="1842" y="266"/>
      <point x="1417" y="-35.0"/>
      <point x="1056" y="-35.0" type="qcurve" smooth="yes"/>
      <point x="1046" y="-35.0" type="line" smooth="yes"/>
      <point x="697" y="-35.0"/>
      <point x="146" y="360.0"/>
      <point x="146" y="741.0" type="qcurve" smooth="yes"/>
      <point x="146" y="751.0" type="line" smooth="yes"/>
      <point x="146" y="1118.0"/>
      <point x="636" y="1530.0"/>
      <point x="1028" y="1530.0" type="qcurve" smooth="yes"/>
      <point x="1039" y="1530.0" type="line" smooth="yes"/>
      <point x="1439" y="1530.0"/>
      <point x="1849" y="1252"/>
      <point x="1870" y="971.0" type="qcurve" smooth="yes"/>
      <point x="1873" y="927.0" type="line"/>
      <point x="1693" y="927.0" type="line"/>
      <point x="1692" y="939.0" type="line" smooth="yes"/>
      <point x="1675" y="1167"/>
      <point x="1312" y="1389.0"/>
      <point x="1037" y="1389.0" type="qcurve" smooth="yes"/>
      <point x="1029" y="1389.0" type="line" smooth="yes"/>
      <point x="740.0" y="1389.0"/>
      <point x="346" y="1059.0"/>
      <point x="346" y="785.0" type="qcurve" smooth="yes"/>
      <point x="346" y="702.0" type="line" smooth="yes"/>
      <point x="346" y="400.0"/>
      <point x="762" y="104.0"/>
      <point x="1036" y="104.0" type="qcurve" smooth="yes"/>
    </contour>
  </outline>
</glyph>
<glyph name="D" format="2">
  <advance width="1979"/>
  <unicode hex="0044"/>
  <outline>
    <contour>
      <point x="288" y="0" type="line"/>
      <point x="288" y="1500" type="line"/>
      <point x="483" y="1500" type="line"/>
      <point x="483" y="0" type="line"/>
    </contour>
    <contour>
      <point x="1100.0" y="146" type="line" smooth="yes"/>
      <point x="1349.0" y="146.0"/>
      <point x="1628.0" y="466"/>
      <point x="1628.0" y="757" type="qcurve" smooth="yes"/>
      <point x="1628.0" y="734.0" type="line" smooth="yes"/>
      <point x="1628.0" y="1028"/>
      <point x="1346.0" y="1350.0"/>
      <point x="1097.0" y="1356.0" type="qcurve" smooth="yes"/>
      <point x="465" y="1356.0" type="line"/>
      <point x="465" y="1500" type="line"/>
      <point x="1137.0" y="1500" type="line" smooth="yes"/>
      <point x="1431.0" y="1500.0"/>
      <point x="1829.0" y="1095"/>
      <point x="1829.0" y="752" type="qcurve" smooth="yes"/>
      <point x="1829.0" y="741" type="line" smooth="yes"/>
      <point x="1829.0" y="401"/>
      <point x="1436.0" y="0.0"/>
      <point x="1133.0" y="0.0" type="qcurve" smooth="yes"/>
      <point x="465" y="0" type="line"/>
      <point x="465" y="146.0" type="line"/>
    </contour>
  </outline>
</glyph>
<glyph name="E" format="2">
  <advance width="1414"/>
  <unicode hex="0045"/>
  <outline>
    <contour>
      <point x="288" y="0" type="line"/>
      <point x="288" y="1500" type="line"/>
      <point x="484" y="1500" type="line"/>
      <point x="484" y="0" type="line"/>
    </contour>
    <contour>
      <point x="1274" y="729" type="line"/>
      <point x="364" y="729" type="line"/>
      <point x="364" y="872" type="line"/>
      <point x="1274" y="872" type="line"/>
    </contour>
    <contour>
      <point x="1434" y="1357" type="line"/>
      <point x="364" y="1357" type="line"/>
      <point x="364" y="1500" type="line"/>
      <point x="1434" y="1500" type="line"/>
    </contour>
    <contour>
      <point x="1434" y="0" type="line"/>
      <point x="364" y="0" type="line"/>
      <point x="364" y="141" type="line"/>
      <point x="1434" y="141" type="line"/>
    </contour>
  </outline>
</glyph>
<glyph name="F" format="2">
  <advance width="1357"/>
  <unicode hex="0046"/>
  <outline>
    <contour>
      <point x="288" y="0" type="line"/>
      <point x="288" y="1500" type="line"/>
      <point x="483" y="1500" type="line"/>
      <point x="483" y="0" type="line"/>
    </contour>
    <contour>
      <point x="1119" y="695" type="line"/>
      <point x="409" y="695" type="line"/>
      <point x="409" y="836" type="line"/>
      <point x="1119" y="836" type="line"/>
    </contour>
    <contour>
      <point x="1309" y="1357" type="line"/>
      <point x="409" y="1357" type="line"/>
      <point x="409" y="1500" type="line"/>
      <point x="1309" y="1500" type="line"/>
    </contour>
  </outline>
</glyph>
<glyph name="G" format="2">
  <advance width="2025"/>
  <unicode hex="0047"/>
  <outline>
    <contour>
      <point x="1093" y="90.0" type="line" smooth="yes"/>
      <point x="1417.0" y="90.0"/>
      <point x="1767.0" y="359.0"/>
      <point x="1772.0" y="656" type="qcurve" smooth="yes"/>
      <point x="1770" y="595.0" type="line"/>
      <point x="1084" y="594.0" type="line"/>
      <point x="1084" y="730.0" type="line"/>
      <point x="1956" y="731.0" type="line"/>
      <point x="1955.0" y="628.0" type="line" smooth="yes"/>
      <point x="1949" y="298"/>
      <point x="1497" y="-31"/>
      <point x="1100" y="-31.0" type="qcurve" smooth="yes"/>
      <point x="1088" y="-31.0" type="line" smooth="yes"/>
      <point x="635" y="-31"/>
      <point x="146" y="395.0"/>
      <point x="146" y="741.0" type="qcurve" smooth="yes"/>
      <point x="146" y="754.0" type="line" smooth="yes"/>
      <point x="146" y="1126.0"/>
      <point x="667.0" y="1530.0"/>
      <point x="1071" y="1530.0" type="qcurve" smooth="yes"/>
      <point x="1085" y="1530.0" type="line" smooth="yes"/>
      <point x="1462.0" y="1530.0"/>
      <point x="1887" y="1246"/>
      <point x="1902" y="1018.0" type="qcurve" smooth="yes"/>
      <point x="1905" y="986.0" type="line"/>
      <point x="1737" y="986.0" type="line"/>
      <point x="1737" y="980.0" type="line" smooth="yes"/>
      <point x="1741.0" y="1163"/>
      <point x="1390.0" y="1386.0"/>
      <point x="1098" y="1386.0" type="qcurve" smooth="yes"/>
      <point x="1087" y="1386.0" type="line" smooth="yes"/>
      <point x="778.0" y="1386.0"/>
      <point x="347" y="1081.0"/>
      <point x="347" y="794.0" type="qcurve" smooth="yes"/>
      <point x="347" y="713.0" type="line" smooth="yes"/>
      <point x="347" y="423.0"/>
      <point x="732.0" y="90"/>
      <point x="1087" y="90.0" type="qcurve" smooth="yes"/>
    </contour>
  </outline>
</glyph>
<glyph name="H" format="2">
  <advance width="2150"/>
  <unicode hex="0048"/>
  <outline>
    <contour>
      <point x="300" y="0" type="line"/>
      <point x="300" y="1500" type="line"/>
      <point x="495" y="1500" type="line"/>
      <point x="495" y="0" type="line"/>
    </contour>
    <contour>
      <point x="1655" y="0" type="line"/>
      <point x="1655" y="1500" type="line"/>
      <point x="1850" y="1500" type="line"/>
      <point x="1850" y="0" type="line"/>
    </contour>
    <contour>
      <point x="1816" y="724" type="line"/>
      <point x="436" y="724" type="line"/>
      <point x="436" y="873" type="line"/>
      <point x="1816" y="873" type="line"/>
    </contour>
  </outline>
</glyph>
<glyph name="I" format="2">
  <advance width="842"/>
  <unicode hex="0049"/>
  <outline>
    <contour>
      <point x="325" y="0" type="line"/>
      <point x="325" y="1500" type="line"/>
      <point x="519" y="1500" type="line"/>
      <point x="519" y="0" type="line"/>
    </contour>
    <contour>
      <point x="546" y="0" type="line"/>
      <point x="276" y="0" type="line"/>
      <point x="276" y="125" type="line"/>
      <point x="546" y="125" type="line"/>
    </contour>
    <contour>
      <point x="546" y="1375" type="line"/>
      <point x="276" y="1375" type="line"/>
      <point x="276" y="1500" type="line"/>
      <point x="546" y="1500" type="line"/>
    </contour>
  </outline>
</glyph>
<glyph name="J" format="2">
  <advance width="1455"/>
  <unicode hex="004A"/>
  <outline>
    <contour>
      <point x="1194.0" y="486" type="line" smooth="yes"/>
      <point x="1194.0" y="163"/>
      <point x="857" y="-32"/>
      <point x="600" y="-32" type="qcurve" smooth="yes"/>
      <point x="588" y="-32.0" type="line" smooth="yes"/>
      <point x="297.0" y="-32"/>
      <point x="20" y="184"/>
      <point x="20" y="379" type="qcurve" smooth="yes"/>
      <point x="20" y="464" type="line"/>
      <point x="208.0" y="463.0" type="line"/>
      <point x="208.0" y="379.0" type="line" smooth="yes"/>
      <point x="208" y="245.0"/>
      <point x="407.0" y="87"/>
      <point x="584" y="87.0" type="qcurve" smooth="yes"/>
      <point x="591.0" y="87" type="line" smooth="yes"/>
      <point x="776" y="87"/>
      <point x="994.0" y="252"/>
      <point x="994.0" y="403" type="qcurve" smooth="yes"/>
      <point x="993" y="1500" type="line"/>
      <point x="1194" y="1500.0" type="line"/>
    </contour>
  </outline>
</glyph>
<glyph name="L" format="2">
  <advance width="1388"/>
  <unicode hex="004C"/>
  <outline>
    <contour>
      <point x="288" y="0" type="line"/>
      <point x="288" y="1500" type="line"/>
      <point x="482" y="1500" type="line"/>
      <point x="482" y="0" type="line"/>
    </contour>
    <contour>
      <point x="1344" y="0" type="line"/>
      <point x="309" y="0" type="line"/>
      <point x="309" y="143" type="line"/>
      <point x="1344" y="143" type="line"/>
    </contour>
  </outline>
</glyph>
<glyph name="M" format="2">
  <advance width="2588"/>
  <unicode hex="004D"/>
  <outline>
    <contour>
      <point x="288" y="0" type="line"/>
      <point x="288" y="1500" type="line"/>
      <point x="599" y="1500" type="line"/>
      <point x="1294" y="215" type="line"/>
      <point x="1307" y="215" type="line"/>
      <point x="1994" y="1500" type="line"/>
      <point x="2311" y="1500" type="line"/>
      <point x="2311" y="0" type="line"/>
      <point x="2151" y="0" type="line"/>
      <point x="2151" y="1529" type="line"/>
      <point x="1382" y="0" type="line"/>
      <point x="1212" y="0" type="line"/>
      <point x="448" y="1533" type="line"/>
      <point x="448" y="0" type="line"/>
    </contour>
  </outline>
</glyph>
<glyph name="N" format="2">
  <advance width="2133"/>
  <unicode hex="004E"/>
  <outline>
    <contour>
      <point x="288" y="0" type="line"/>
      <point x="288" y="1500" type="line"/>
      <point x="433" y="1498" type="line"/>
      <point x="1680" y="195" type="line"/>
      <point x="1680" y="1500" type="line"/>
      <point x="1845" y="1500" type="line"/>
      <point x="1845" y="0" type="line"/>
      <point x="1675" y="0" type="line"/>
      <point x="1660" y="17" type="line"/>
      <point x="433" y="1346" type="line"/>
      <point x="433" y="0" type="line"/>
    </contour>
  </outline>
</glyph>
<glyph name="O" format="2">
  <advance width="2162"/>
  <unicode hex="004F"/>
  <outline>
    <contour>
      <point x="1064" y="-32.0" type="line" smooth="yes"/>
      <point x="629" y="-32.0"/>
      <point x="146" y="371.0"/>
      <point x="146" y="734.0" type="qcurve" smooth="yes"/>
      <point x="146" y="752.0" type="line" smooth="yes"/>
      <point x="146" y="1110.0"/>
      <point x="642.0" y="1528.0"/>
      <point x="1071" y="1528.0" type="qcurve" smooth="yes"/>
      <point x="1082" y="1528.0" type="line" smooth="yes"/>
      <point x="1499" y="1528.0"/>
      <point x="2017.0" y="1127.0"/>
      <point x="2017.0" y="753.0" type="qcurve" smooth="yes"/>
      <point x="2017.0" y="738.0" type="line" smooth="yes"/>
      <point x="2017.0" y="368.0"/>
      <point x="1502" y="-32.0"/>
      <point x="1076" y="-32.0" type="qcurve" smooth="yes"/>
    </contour>
    <contour>
      <point x="1083.0" y="94.0" type="line" smooth="yes"/>
      <point x="1411.0" y="94.0"/>
      <point x="1815.0" y="415.0"/>
      <point x="1815.0" y="743" type="qcurve" smooth="yes"/>
      <point x="1815.0" y="727" type="line" smooth="yes"/>
      <point x="1815.0" y="1055.0"/>
      <point x="1413.0" y="1384"/>
      <point x="1083.0" y="1384" type="qcurve" smooth="yes"/>
      <point x="1071.0" y="1384" type="line" smooth="yes"/>
      <point x="736.0" y="1384"/>
      <point x="347.0" y="1051.0"/>
      <point x="347.0" y="724" type="qcurve" smooth="yes"/>
      <point x="347.0" y="739" type="line" smooth="yes"/>
      <point x="347.0" y="416.0"/>
      <point x="710.0" y="94.0"/>
      <point x="1071.0" y="94.0" type="qcurve" smooth="yes"/>
    </contour>
  </outline>
</glyph>
<glyph name="P" format="2">
  <advance width="1551"/>
  <unicode hex="0050"/>
  <outline>
    <contour>
      <point x="288" y="0" type="line"/>
      <point x="288" y="1500" type="line"/>
      <point x="485" y="1500" type="line"/>
      <point x="485" y="0" type="line"/>
    </contour>
    <contour>
      <point x="972.0" y="537" type="qcurve" smooth="yes"/>
      <point x="404.0" y="537" type="line"/>
      <point x="404.0" y="677" type="line"/>
      <point x="858.0" y="677" type="line" smooth="yes"/>
      <point x="1056.0" y="677.0"/>
      <point x="1284" y="832"/>
      <point x="1284.0" y="1035" type="qcurve" smooth="yes"/>
      <point x="1284.0" y="1043" type="line" smooth="yes"/>
      <point x="1284" y="1218"/>
      <point x="1065.0" y="1366.0"/>
      <point x="911.0" y="1366" type="qcurve" smooth="yes"/>
      <point x="404.0" y="1366" type="line"/>
      <point x="404" y="1500" type="line"/>
      <point x="1011.0" y="1500.0" type="line" smooth="yes"/>
      <point x="1198.0" y="1500.0"/>
      <point x="1475" y="1264"/>
      <point x="1475.0" y="1044" type="qcurve" smooth="yes"/>
      <point x="1475.0" y="1037" type="line" smooth="yes"/>
      <point x="1475" y="768"/>
      <point x="1216.0" y="536.0"/>
    </contour>
  </outline>
</glyph>
<glyph name="Q" format="2">
  <advance width="2162"/>
  <unicode hex="0051"/>
  <outline>
    <contour>
      <point x="1064" y="-21.0" type="line" smooth="yes"/>
      <point x="629" y="-21"/>
      <point x="146" y="371.0"/>
      <point x="146" y="754.0" type="qcurve" smooth="yes"/>
      <point x="146" y="752.0" type="line" smooth="yes"/>
      <point x="146" y="1120.0"/>
      <point x="642.0" y="1528.0"/>
      <point x="1071" y="1528.0" type="qcurve" smooth="yes"/>
      <point x="1082" y="1528.0" type="line" smooth="yes"/>
      <point x="1499" y="1528.0"/>
      <point x="2017.0" y="1127.0"/>
      <point x="2017.0" y="753.0" type="qcurve" smooth="yes"/>
      <point x="2017.0" y="758.0" type="line" smooth="yes"/>
      <point x="2017.0" y="398.0"/>
      <point x="1472.0" y="-21.0"/>
      <point x="1076" y="-21.0" type="qcurve" smooth="yes"/>
    </contour>
    <contour>
      <point x="1083.0" y="94.0" type="line" smooth="yes"/>
      <point x="1411.0" y="94.0"/>
      <point x="1815.0" y="425.0"/>
      <point x="1815.0" y="733" type="qcurve" smooth="yes"/>
      <point x="1815.0" y="727" type="line" smooth="yes"/>
      <point x="1815.0" y="1035"/>
      <point x="1413.0" y="1384"/>
      <point x="1083.0" y="1384" type="qcurve" smooth="yes"/>
      <point x="1071.0" y="1384" type="line" smooth="yes"/>
      <point x="736.0" y="1384"/>
      <point x="347.0" y="1031"/>
      <point x="347.0" y="724" type="qcurve" smooth="yes"/>
      <point x="347.0" y="729" type="line" smooth="yes"/>
      <point x="347.0" y="426.0"/>
      <point x="710.0" y="94.0"/>
      <point x="1071.0" y="94.0" type="qcurve" smooth="yes"/>
    </contour>
    <contour>
      <point x="1023" y="-9" type="line"/>
      <point x="2156" y="55" type="line"/>
      <point x="2156" y="-110" type="line"/>
      <point x="1024" y="-58" type="line"/>
    </contour>
  </outline>
</glyph>
<glyph name="R" format="2">
  <advance width="1619"/>
  <unicode hex="0052"/>
  <outline>
    <contour>
      <point x="288" y="0" type="line"/>
      <point x="288" y="1500" type="line"/>
      <point x="482" y="1500" type="line"/>
      <point x="482" y="0" type="line"/>
    </contour>
    <contour>
      <point x="985" y="620.0" type="qcurve" smooth="yes"/>
      <point x="409" y="620.0" type="line"/>
      <point x="409.0" y="772" type="line"/>
      <point x="894" y="772" type="line" smooth="yes"/>
      <point x="1111.0" y="772.0"/>
      <point x="1364" y="916"/>
      <point x="1364" y="1079.0" type="qcurve" smooth="yes"/>
      <point x="1364" y="1096.0" type="line" smooth="yes"/>
      <point x="1364" y="1235"/>
      <point x="1127.0" y="1357.0"/>
      <point x="897" y="1357.0" type="qcurve" smooth="yes"/>
      <point x="409.0" y="1357" type="line"/>
      <point x="409" y="1500.0" type="line"/>
      <point x="980" y="1500.0" type="line" smooth="yes"/>
      <point x="1248.0" y="1500.0"/>
      <point x="1545" y="1306"/>
      <point x="1545.0" y="1092.0" type="qcurve" smooth="yes"/>
      <point x="1545.0" y="1075.0" type="line" smooth="yes"/>
      <point x="1545" y="832"/>
      <point x="1225.0" y="620.0"/>
    </contour>
    <contour>
      <point x="1129" y="725" type="line"/>
      <point x="1636" y="0" type="line"/>
      <point x="1437" y="0" type="line"/>
      <point x="941" y="710" type="line"/>
    </contour>
  </outline>
</glyph>
<glyph name="S" format="2">
  <advance width="1659"/>
  <unicode hex="0053"/>
  <outline>
    <contour>
      <point x="1415.0" y="404.0" type="line" smooth="yes"/>
      <point x="1415" y="518"/>
      <point x="1159" y="677"/>
      <point x="788" y="726" type="qcurve" smooth="yes"/>
      <point x="397" y="772"/>
      <point x="105" y="961.0"/>
      <point x="105" y="1138" type="qcurve" smooth="yes"/>
      <point x="105" y="1163" type="line" smooth="yes"/>
      <point x="105" y="1311.0"/>
      <point x="448.0" y="1530.0"/>
      <point x="806" y="1530.0" type="qcurve" smooth="yes"/>
      <point x="818" y="1530.0" type="line" smooth="yes"/>
      <point x="1201.0" y="1530.0"/>
      <point x="1552.0" y="1313.0"/>
      <point x="1531" y="1119.0" type="qcurve" smooth="yes"/>
      <point x="1531" y="1076.0" type="line"/>
      <point x="1357.0" y="1077" type="line"/>
      <point x="1357.0" y="1132" type="line" smooth="yes"/>
      <point x="1357.0" y="1243"/>
      <point x="1128.0" y="1376"/>
      <point x="822.0" y="1376.0" type="qcurve" smooth="yes"/>
      <point x="810.0" y="1376" type="line" smooth="yes"/>
      <point x="537.0" y="1376"/>
      <point x="287.0" y="1225.0"/>
      <point x="287.0" y="1143" type="qcurve" smooth="yes"/>
      <point x="287.0" y="1109" type="line" smooth="yes"/>
      <point x="287.0" y="1039.0"/>
      <point x="510" y="920"/>
      <point x="891" y="884" type="qcurve" smooth="yes"/>
      <point x="1300" y="844"/>
      <point x="1593.0" y="601.0"/>
      <point x="1593" y="408.0" type="qcurve" smooth="yes"/>
      <point x="1593" y="384.0" type="line" smooth="yes"/>
      <point x="1593.0" y="198"/>
      <point x="1216.0" y="-33.0"/>
      <point x="837" y="-33.0" type="qcurve" smooth="yes"/>
      <point x="832" y="-33.0" type="line" smooth="yes"/>
      <point x="425" y="-33"/>
      <point x="65" y="221.0"/>
      <point x="67" y="396.0" type="qcurve" smooth="yes"/>
      <point x="67" y="476.0" type="line"/>
      <point x="225.0" y="476.0" type="line"/>
      <point x="225.0" y="401" type="line" smooth="yes"/>
      <point x="225.0" y="279.0"/>
      <point x="489.0" y="92"/>
      <point x="829.0" y="92" type="qcurve" smooth="yes"/>
      <point x="837.0" y="92" type="line" smooth="yes"/>
      <point x="1171.0" y="92.0"/>
      <point x="1415.0" y="310.0"/>
      <point x="1415.0" y="389" type="qcurve" smooth="yes"/>
    </contour>
  </outline>
</glyph>
<glyph name="T" format="2">
  <advance width="1544"/>
  <unicode hex="0054"/>
  <outline>
    <contour>
      <point x="684.0" y="0.0" type="line"/>
      <point x="684.0" y="1480.0" type="line"/>
      <point x="876.0" y="1480.0" type="line"/>
      <point x="876.0" y="0.0" type="line"/>
    </contour>
    <contour>
      <point x="1530" y="1355" type="line"/>
      <point x="14" y="1355" type="line"/>
      <point x="14" y="1500" type="line"/>
      <point x="1530" y="1500" type="line"/>
    </contour>
  </outline>
</glyph>
<glyph name="U" format="2">
  <advance width="1887"/>
  <unicode hex="0055"/>
  <outline>
    <contour>
      <point x="182" y="1500.0" type="line"/>
      <point x="369.0" y="1500.0" type="line"/>
      <point x="369.0" y="578" type="line" smooth="yes"/>
      <point x="369.0" y="339.0"/>
      <point x="701.0" y="119"/>
      <point x="932.0" y="119" type="qcurve" smooth="yes"/>
      <point x="941.0" y="119" type="line" smooth="yes"/>
      <point x="1191.0" y="119.0"/>
      <point x="1509.0" y="368.0"/>
      <point x="1509.0" y="578" type="qcurve" smooth="yes"/>
      <point x="1509" y="1500.0" type="line"/>
      <point x="1705" y="1500.0" type="line"/>
      <point x="1697" y="663.0" type="line" smooth="yes"/>
      <point x="1695.0" y="329.0"/>
      <point x="1339.0" y="-33.0"/>
      <point x="948" y="-33.0" type="qcurve" smooth="yes"/>
      <point x="939" y="-33.0" type="line" smooth="yes"/>
      <point x="615.0" y="-33"/>
      <point x="182" y="312.0"/>
      <point x="182" y="693.0" type="qcurve" smooth="yes"/>
    </contour>
  </outline>
</glyph>
<glyph name="V" format="2">
  <advance width="1661"/>
  <unicode hex="0056"/>
  <outline>
    <contour>
      <point x="716" y="0" type="line"/>
      <point x="-20" y="1500" type="line"/>
      <point x="211.0" y="1500.0" type="line"/>
      <point x="845.0" y="232" type="line"/>
      <point x="1479.0" y="1500.0" type="line"/>
      <point x="1691" y="1500" type="line"/>
      <point x="942" y="0" type="line"/>
    </contour>
  </outline>
</glyph>
<glyph name="W" format="2">
  <advance width="2330"/>
  <unicode hex="0057"/>
  <outline>
    <contour>
      <point x="516" y="0" type="line"/>
      <point x="-19" y="1500" type="line"/>
      <point x="163" y="1500" type="line"/>
      <point x="647" y="339" type="line"/>
      <point x="1082" y="1500" type="line"/>
      <point x="1278" y="1500" type="line"/>
      <point x="1745" y="339" type="line"/>
      <point x="2191" y="1500" type="line"/>
      <point x="2350" y="1500" type="line"/>
      <point x="1824" y="0" type="line"/>
      <point x="1661" y="0" type="line"/>
      <point x="1175" y="1245" type="line"/>
      <point x="1163" y="1245" type="line"/>
      <point x="675" y="0" type="line"/>
    </contour>
  </outline>
</glyph>
<glyph name="X" format="2">
  <advance width="1584"/>
  <unicode hex="0058"/>
  <outline>
    <contour>
      <point x="42" y="0" type="line"/>
      <point x="713" y="845" type="line"/>
      <point x="768" y="851" type="line"/>
      <point x="1266" y="1500" type="line"/>
      <point x="1502" y="1500" type="line"/>
      <point x="876" y="707" type="line"/>
      <point x="814" y="692" type="line"/>
      <point x="278" y="0" type="line"/>
    </contour>
    <contour>
      <point x="1272" y="0" type="line"/>
      <point x="723" y="696" type="line"/>
      <point x="717" y="684" type="line"/>
      <point x="63" y="1500" type="line"/>
      <point x="330" y="1500" type="line"/>
      <point x="842" y="847" type="line"/>
      <point x="843" y="866" type="line"/>
      <point x="1542" y="0" type="line"/>
    </contour>
  </outline>
</glyph>
<glyph name="Y" format="2">
  <advance width="1550"/>
  <unicode hex="0059"/>
  <outline>
    <contour>
      <point x="689" y="500" type="line"/>
      <point x="-90" y="1500" type="line"/>
      <point x="194" y="1500" type="line"/>
      <point x="773" y="734" type="line"/>
      <point x="1377" y="1500" type="line"/>
      <point x="1640" y="1500" type="line"/>
      <point x="862" y="500" type="line"/>
    </contour>
    <contour>
      <point x="678.0" y="0.0" type="line"/>
      <point x="678.0" y="520.0" type="line"/>
      <point x="873.0" y="520.0" type="line"/>
      <point x="873.0" y="0.0" type="line"/>
    </contour>
  </outline>
</glyph>
<glyph name="Z" format="2">
  <advance width="1502"/>
  <unicode hex="005A"/>
  <outline>
    <contour>
      <point x="1474" y="0" type="line"/>
      <point x="34" y="0" type="line"/>
      <point x="29" y="148" type="line"/>
      <point x="1194" y="1357" type="line"/>
      <point x="64" y="1357" type="line"/>
      <point x="64" y="1500" type="line"/>
      <point x="1424" y="1500" type="line"/>
      <point x="1424" y="1362" type="line"/>
      <point x="250" y="143" type="line"/>
      <point x="1474" y="143" type="line"/>
    </contour>
  </outline>
</glyph>
<glyph name="bracketleft" format="2">
  <advance width="1040"/>
  <unicode hex="005B"/>
  <outline>
    <contour>
      <point x="264" y="-280" type="line"/>
      <point x="264" y="1500" type="line"/>
      <point x="444" y="1500" type="line"/>
      <point x="444" y="-280" type="line"/>
    </contour>
    <contour>
      <point x="1046" y="-280" type="line"/>
      <point x="389" y="-280" type="line"/>
      <point x="389" y="-142" type="line"/>
      <point x="1046" y="-142" type="line"/>
    </contour>
    <contour>
      <point x="1046" y="1362" type="line"/>
      <point x="384" y="1362" type="line"/>
      <point x="384" y="1500" type="line"/>
      <point x="1046" y="1500" type="line"/>
    </contour>
  </outline>
</glyph>
<glyph name="bracketright" format="2">
  <advance width="1040"/>
  <unicode hex="005D"/>
  <outline>
    <contour>
      <point x="776" y="-280" type="line"/>
      <point x="596" y="-280" type="line"/>
      <point x="596" y="1500" type="line"/>
      <point x="776" y="1500" type="line"/>
    </contour>
    <contour>
      <point x="-6" y="-280" type="line"/>
      <point x="-6" y="-142" type="line"/>
      <point x="651" y="-142" type="line"/>
      <point x="651" y="-280" type="line"/>
    </contour>
    <contour>
      <point x="-6" y="1362" type="line"/>
      <point x="-6" y="1500" type="line"/>
      <point x="656" y="1500" type="line"/>
      <point x="656" y="1362" type="line"/>
    </contour>
  </outline>
</glyph>
<glyph name="grave" format="2">
  <advance width="1200"/>
  <unicode hex="0060"/>
  <outline>
    <contour>
      <point x="569.0" y="1503.0" type="line"/>
      <point x="1036.0" y="1127.0" type="line"/>
      <point x="780.0" y="1127.0" type="line"/>
      <point x="268.0" y="1503.0" type="line"/>
    </contour>
  </outline>
</glyph>
<glyph name="a" format="2">
  <advance width="1576"/>
  <unicode hex="0061"/>
  <outline>
    <contour>
      <point x="161" y="977" type="line"/>
      <point x="216" y="989"/>
      <point x="543" y="1081.0"/>
      <point x="758" y="1081.0" type="qcurve" smooth="yes"/>
      <point x="1103" y="1081"/>
      <point x="1351" y="866"/>
      <point x="1356" y="642" type="qcurve" smooth="yes"/>
      <point x="1360" y="1" type="line"/>
      <point x="1188" y="1" type="line"/>
      <point x="1178.0" y="694" type="line" smooth="yes"/>
      <point x="1177.0" y="814.0"/>
      <point x="987" y="986"/>
      <point x="763" y="986.0" type="qcurve" smooth="yes"/>
      <point x="598.0" y="986.0"/>
      <point x="264.0" y="911.0"/>
      <point x="183" y="867" type="qcurve"/>
    </contour>
    <contour>
      <point x="1335" y="300.0" type="line"/>
      <point x="1280" y="190.0"/>
      <point x="876" y="-22"/>
      <point x="668" y="-22" type="qcurve" smooth="yes"/>
      <point x="392" y="-22"/>
      <point x="79" y="151"/>
      <point x="79" y="308.0" type="qcurve" smooth="yes"/>
      <point x="79" y="444"/>
      <point x="381.0" y="639.0"/>
      <point x="697" y="639.0" type="qcurve" smooth="yes"/>
      <point x="941" y="639"/>
      <point x="1243" y="559.0"/>
      <point x="1337" y="486.0" type="qcurve"/>
      <point x="1337.0" y="486" type="line"/>
      <point x="1234.0" y="514"/>
      <point x="840" y="561.0"/>
      <point x="753" y="561.0" type="qcurve" smooth="yes"/>
      <point x="559" y="561"/>
      <point x="269" y="433.0"/>
      <point x="269" y="308.0" type="qcurve" smooth="yes"/>
      <point x="269.0" y="172.0"/>
      <point x="518" y="52.0"/>
      <point x="740" y="52.0" type="qcurve" smooth="yes"/>
      <point x="881" y="52"/>
      <point x="1199.0" y="153"/>
      <point x="1335.0" y="311" type="qcurve"/>
    </contour>
  </outline>
</glyph>
<glyph name="b" format="2">
  <advance width="1853"/>
  <unicode hex="0062"/>
  <outline>
    <contour>
      <point x="245" y="2" type="line"/>
      <point x="245" y="1540" type="line"/>
      <point x="425" y="1540" type="line"/>
      <point x="415" y="2" type="line"/>
    </contour>
    <contour>
      <point x="352" y="590.0" type="line" smooth="yes"/>
      <point x="352.0" y="797.0"/>
      <point x="716" y="1082"/>
      <point x="1018" y="1082.0" type="qcurve" smooth="yes"/>
      <point x="1034" y="1082.0" type="line" smooth="yes"/>
      <point x="1369.0" y="1082.0"/>
      <point x="1735.0" y="751.0"/>
      <point x="1735.0" y="530.0" type="qcurve" smooth="yes"/>
      <point x="1735.0" y="524.0" type="line" smooth="yes"/>
      <point x="1735.0" y="293.0"/>
      <point x="1370" y="-23"/>
      <point x="1040" y="-23.0" type="qcurve" smooth="yes"/>
      <point x="1031.0" y="-23.0" type="line" smooth="yes"/>
      <point x="717" y="-23"/>
      <point x="352" y="288.0"/>
      <point x="352" y="449.0" type="qcurve" smooth="yes"/>
    </contour>
    <contour>
      <point x="456.0" y="544" type="qcurve" smooth="yes"/>
      <point x="456.0" y="521" type="line" smooth="yes"/>
      <point x="456" y="301"/>
      <point x="789" y="82"/>
      <point x="1010.0" y="82.0" type="qcurve" smooth="yes"/>
      <point x="1027.0" y="82" type="line" smooth="yes"/>
      <point x="1257.0" y="82.0"/>
      <point x="1565.0" y="313.0"/>
      <point x="1565.0" y="531" type="qcurve" smooth="yes"/>
      <point x="1565.0" y="543" type="line" smooth="yes"/>
      <point x="1565.0" y="763.0"/>
      <point x="1241.0" y="978.0"/>
      <point x="1009.0" y="978" type="qcurve" smooth="yes"/>
      <point x="994.0" y="978.0" type="line" smooth="yes"/>
      <point x="782" y="978"/>
      <point x="456.0" y="730.0"/>
    </contour>
  </outline>
</glyph>
<glyph name="c" format="2">
  <advance width="1603"/>
  <unicode hex="0063"/>
  <outline>
    <contour>
      <point x="1557" y="378.0" type="line"/>
      <point x="1553" y="351.0" type="line" smooth="yes"/>
      <point x="1527" y="203"/>
      <point x="1222.0" y="-25.0"/>
      <point x="877" y="-25.0" type="qcurve" smooth="yes"/>
      <point x="866" y="-25.0" type="line" smooth="yes"/>
      <point x="505.0" y="-25"/>
      <point x="118" y="249.0"/>
      <point x="118" y="513.0" type="qcurve" smooth="yes"/>
      <point x="118" y="524.0" type="line" smooth="yes"/>
      <point x="118" y="795.0"/>
      <point x="512.0" y="1082.0"/>
      <point x="859" y="1082.0" type="qcurve" smooth="yes"/>
      <point x="869" y="1082.0" type="line" smooth="yes"/>
      <point x="1215.0" y="1082.0"/>
      <point x="1538" y="855.0"/>
      <point x="1553" y="682.0" type="qcurve" smooth="yes"/>
      <point x="1555" y="654.0" type="line"/>
      <point x="1390" y="655.0" type="line"/>
      <point x="1387" y="683.0" type="line" smooth="yes"/>
      <point x="1375" y="796"/>
      <point x="1146.0" y="971.0"/>
      <point x="876.0" y="971" type="qcurve" smooth="yes"/>
      <point x="872.0" y="971.0" type="line" smooth="yes"/>
      <point x="583.0" y="971.0"/>
      <point x="316" y="765.0"/>
      <point x="316.0" y="560" type="qcurve" smooth="yes"/>
      <point x="316.0" y="485" type="line" smooth="yes"/>
      <point x="316" y="291.0"/>
      <point x="585.0" y="90"/>
      <point x="872.0" y="90" type="qcurve" smooth="yes"/>
      <point x="886.0" y="90" type="line" smooth="yes"/>
      <point x="1144.0" y="90.0"/>
      <point x="1371" y="261"/>
      <point x="1391" y="364.0" type="qcurve" smooth="yes"/>
      <point x="1396" y="380.0" type="line"/>
    </contour>
  </outline>
</glyph>
<glyph name="d" format="2">
  <advance width="1836"/>
  <unicode hex="0064"/>
  <outline>
    <contour>
      <point x="1591" y="0" type="line"/>
      <point x="1431" y="0" type="line"/>
      <point x="1411" y="1540" type="line"/>
      <point x="1591" y="1540" type="line"/>
    </contour>
    <contour>
      <point x="1498" y="541" type="qcurve" smooth="yes"/>
      <point x="1498" y="506" type="line" smooth="yes"/>
      <point x="1498.0" y="255.0"/>
      <point x="1108.0" y="-25.0"/>
      <point x="830" y="-25" type="qcurve" smooth="yes"/>
      <point x="821" y="-25" type="line" smooth="yes"/>
      <point x="486" y="-25"/>
      <point x="102" y="284"/>
      <point x="102" y="515" type="qcurve" smooth="yes"/>
      <point x="102" y="528" type="line" smooth="yes"/>
      <point x="102" y="762"/>
      <point x="502" y="1083"/>
      <point x="836" y="1083" type="qcurve" smooth="yes"/>
      <point x="846" y="1083" type="line" smooth="yes"/>
      <point x="1155.0" y="1083.0"/>
      <point x="1498.0" y="840.0"/>
    </contour>
    <contour>
      <point x="1381.0" y="537" type="line" smooth="yes"/>
      <point x="1381.0" y="780.0"/>
      <point x="1058.0" y="978.0"/>
      <point x="831.0" y="978" type="qcurve" smooth="yes"/>
      <point x="819.0" y="978" type="line" smooth="yes"/>
      <point x="585" y="978"/>
      <point x="276.0" y="747"/>
      <point x="276.0" y="529" type="qcurve" smooth="yes"/>
      <point x="276.0" y="514" type="line" smooth="yes"/>
      <point x="276.0" y="298"/>
      <point x="598" y="75"/>
      <point x="817.0" y="75" type="qcurve" smooth="yes"/>
      <point x="829.0" y="75" type="line" smooth="yes"/>
      <point x="1061.0" y="75.0"/>
      <point x="1381.0" y="279.0"/>
      <point x="1381.0" y="507" type="qcurve" smooth="yes"/>
    </contour>
  </outline>
</glyph>
<glyph name="e" format="2">
  <advance width="1665"/>
  <unicode hex="0065"/>
  <outline>
    <contour>
      <point x="1579" y="358.0" type="line"/>
      <point x="1576" y="344.0" type="line" smooth="yes"/>
      <point x="1547" y="188"/>
      <point x="1201.0" y="-25.0"/>
      <point x="872" y="-25.0" type="qcurve" smooth="yes"/>
      <point x="863" y="-25.0" type="line" smooth="yes"/>
      <point x="524" y="-25"/>
      <point x="116" y="243.0"/>
      <point x="116" y="513.0" type="qcurve" smooth="yes"/>
      <point x="116" y="533.0" type="line" smooth="yes"/>
      <point x="116" y="781.0"/>
      <point x="524.0" y="1082.0"/>
      <point x="847" y="1082.0" type="qcurve" smooth="yes"/>
      <point x="869" y="1082.0" type="line" smooth="yes"/>
      <point x="1226.0" y="1082.0"/>
      <point x="1541" y="821"/>
      <point x="1567" y="590.0" type="qcurve" smooth="yes"/>
      <point x="1584" y="514.0" type="line"/>
      <point x="147" y="514" type="line"/>
      <point x="147" y="596" type="line"/>
      <point x="1390" y="596.0" type="line"/>
      <point x="1384" y="633.0" type="line" smooth="yes"/>
      <point x="1370.0" y="777.0"/>
      <point x="1107.0" y="983.0"/>
      <point x="864" y="983.0" type="qcurve" smooth="yes"/>
      <point x="866" y="983.0" type="line" smooth="yes"/>
      <point x="624.0" y="983.0"/>
      <point x="303" y="749.0"/>
      <point x="303" y="528.0" type="qcurve" smooth="yes"/>
      <point x="303" y="510.0" type="line" smooth="yes"/>
      <point x="303" y="282.0"/>
      <point x="626.0" y="68"/>
      <point x="858" y="68.0" type="qcurve" smooth="yes"/>
      <point x="879" y="68.0" type="line" smooth="yes"/>
      <point x="1087.0" y="68.0"/>
      <point x="1365" y="222"/>
      <point x="1399" y="325.0" type="qcurve" smooth="yes"/>
      <point x="1410" y="363.0" type="line"/>
    </contour>
  </outline>
</glyph>
<glyph name="f" format="2">
  <advance width="855"/>
  <unicode hex="0066"/>
  <outline>
    <contour>
      <point x="895" y="911" type="line"/>
      <point x="-20" y="911" type="line"/>
      <point x="-20" y="1030" type="line"/>
      <point x="895" y="1030" type="line"/>
    </contour>
    <contour>
      <point x="456.0" y="1202.0" type="qcurve" smooth="yes"/>
      <point x="466.0" y="0.0" type="line"/>
      <point x="298.0" y="0.0" type="line"/>
      <point x="298.0" y="1252.0" type="line" smooth="yes"/>
      <point x="298.0" y="1419.0"/>
      <point x="532" y="1605.0"/>
      <point x="689" y="1605.0" type="qcurve" smooth="yes"/>
      <point x="797.0" y="1605.0"/>
      <point x="955.0" y="1577.0"/>
      <point x="974" y="1570" type="qcurve"/>
      <point x="966" y="1459" type="line"/>
      <point x="948.0" y="1467.0"/>
      <point x="785" y="1498"/>
      <point x="718" y="1498" type="qcurve" smooth="yes"/>
      <point x="602" y="1498"/>
      <point x="455.0" y="1364.0"/>
    </contour>
  </outline>
</glyph>
<glyph name="g" format="2">
  <advance width="1828"/>
  <unicode hex="0067"/>
  <outline>
    <contour>
      <point x="1477" y="541" type="qcurve" smooth="yes"/>
      <point x="1477" y="506" type="line" smooth="yes"/>
      <point x="1477.0" y="285.0"/>
      <point x="1105" y="-35"/>
      <point x="828" y="-35" type="qcurve" smooth="yes"/>
      <point x="819" y="-35" type="line" smooth="yes"/>
      <point x="459" y="-35"/>
      <point x="102" y="277.0"/>
      <point x="102" y="526" type="qcurve" smooth="yes"/>
      <point x="102" y="551" type="line" smooth="yes"/>
      <point x="102" y="772"/>
      <point x="501" y="1083"/>
      <point x="834" y="1083" type="qcurve" smooth="yes"/>
      <point x="844" y="1083" type="line" smooth="yes"/>
      <point x="1124.0" y="1083.0"/>
      <point x="1477.0" y="810.0"/>
    </contour>
    <contour>
      <point x="1384.0" y="537.0" type="line" smooth="yes"/>
      <point x="1384.0" y="790.0"/>
      <point x="1060" y="978.0"/>
      <point x="832.0" y="978.0" type="qcurve" smooth="yes"/>
      <point x="820.0" y="978.0" type="line" smooth="yes"/>
      <point x="586" y="978.0"/>
      <point x="276.0" y="747.0"/>
      <point x="276.0" y="537.0" type="qcurve" smooth="yes"/>
      <point x="276.0" y="517.0" type="line" smooth="yes"/>
      <point x="276.0" y="288.0"/>
      <point x="599" y="65.0"/>
      <point x="818.0" y="65.0" type="qcurve" smooth="yes"/>
      <point x="830.0" y="65.0" type="line" smooth="yes"/>
      <point x="1062" y="65.0"/>
      <point x="1384.0" y="279.0"/>
      <point x="1384.0" y="507.0" type="qcurve" smooth="yes"/>
    </contour>
    <contour>
      <point x="267" y="-324.0" type="line"/>
      <point x="342" y="-337.0"/>
      <point x="568" y="-375.0"/>
      <point x="694" y="-375.0" type="qcurve" smooth="yes"/>
      <point x="1028.0" y="-375.0"/>
      <point x="1422.0" y="-106.0"/>
      <point x="1422.0" y="140.0" type="qcurve" smooth="yes"/>
      <point x="1422.0" y="1040.0" type="line"/>
      <point x="1583.0" y="1040.0" type="line"/>
      <point x="1583.0" y="160.0" type="line" smooth="yes"/>
      <point x="1583.0" y="-243.0"/>
      <point x="1088" y="-490.0"/>
      <point x="721" y="-490" type="qcurve" smooth="yes"/>
      <point x="541" y="-490.0"/>
      <point x="339" y="-457.0"/>
      <point x="265" y="-441.0" type="qcurve"/>
    </contour>
  </outline>
</glyph>
<glyph name="h" format="2">
  <advance width="1650"/>
  <unicode hex="0068"/>
  <outline>
    <contour>
      <point x="245.0" y="0.0" type="line"/>
      <point x="245.0" y="1540.0" type="line"/>
      <point x="415.0" y="1540.0" type="line"/>
      <point x="425.0" y="0.0" type="line"/>
    </contour>
    <contour>
      <point x="287" y="666" type="line"/>
      <point x="328" y="820"/>
      <point x="719.0" y="1080.0"/>
      <point x="949" y="1080.0" type="qcurve" smooth="yes"/>
      <point x="1177" y="1080"/>
      <point x="1440.0" y="852.0"/>
      <point x="1441" y="645" type="qcurve" smooth="yes"/>
      <point x="1445" y="0" type="line"/>
      <point x="1264" y="0.0" type="line"/>
      <point x="1260.0" y="660" type="line" smooth="yes"/>
      <point x="1259.0" y="825.0"/>
      <point x="1021" y="957.0"/>
      <point x="860.0" y="957.0" type="qcurve" smooth="yes"/>
      <point x="728" y="957"/>
      <point x="388" y="743.0"/>
      <point x="313" y="594.0" type="qcurve"/>
    </contour>
  </outline>
</glyph>
<glyph name="i" format="2">
  <advance width="733"/>
  <unicode hex="0069"/>
  <outline>
    <contour>
      <point x="310.0" y="0.0" type="line"/>
      <point x="310.0" y="1040.0" type="line"/>
      <point x="486.0" y="1040.0" type="line"/>
      <point x="486.0" y="0.0" type="line"/>
    </contour>
    <contour>
      <point x="392" y="1322" type="line" smooth="yes"/>
      <point x="450" y="1322"/>
      <point x="504" y="1382"/>
      <point x="504" y="1427" type="qcurve" smooth="yes"/>
      <point x="504" y="1434" type="line" smooth="yes"/>
      <point x="504" y="1479"/>
      <point x="451" y="1540.0"/>
      <point x="392" y="1540.0" type="qcurve" smooth="yes"/>
      <point x="390" y="1540.0" type="line" smooth="yes"/>
      <point x="335" y="1540.0"/>
      <point x="283" y="1479"/>
      <point x="283" y="1434" type="qcurve" smooth="yes"/>
      <point x="283" y="1427" type="line" smooth="yes"/>
      <point x="283" y="1381"/>
      <point x="334" y="1322"/>
      <point x="390" y="1322" type="qcurve" smooth="yes"/>
    </contour>
    <contour>
      <point x="453" y="900" type="line"/>
      <point x="-10" y="880" type="line"/>
      <point x="-10" y="1020" type="line"/>
      <point x="453" y="1040" type="line"/>
    </contour>
  </outline>
</glyph>
<glyph name="j" format="2">
  <advance width="712"/>
  <unicode hex="006A"/>
  <outline>
    <contour>
      <point x="490.0" y="33.0" type="line" smooth="yes"/>
      <point x="490.0" y="-278.0"/>
      <point x="170" y="-498"/>
      <point x="-124" y="-498" type="qcurve" smooth="yes"/>
      <point x="-215" y="-498"/>
      <point x="-300" y="-488"/>
      <point x="-329" y="-479" type="qcurve"/>
      <point x="-339" y="-330" type="line"/>
      <point x="-309" y="-336"/>
      <point x="-200" y="-354"/>
      <point x="-126" y="-354" type="qcurve" smooth="yes"/>
      <point x="61" y="-354"/>
      <point x="314" y="-174.0"/>
      <point x="314.0" y="71.0" type="qcurve" smooth="yes"/>
      <point x="314.0" y="1042.0" type="line"/>
      <point x="490.0" y="1042.0" type="line"/>
    </contour>
    <contour>
      <point x="397" y="1322" type="line" smooth="yes"/>
      <point x="455" y="1322"/>
      <point x="509" y="1382"/>
      <point x="509" y="1427" type="qcurve" smooth="yes"/>
      <point x="509" y="1434" type="line" smooth="yes"/>
      <point x="509" y="1479"/>
      <point x="456" y="1540.0"/>
      <point x="397" y="1540.0" type="qcurve" smooth="yes"/>
      <point x="395" y="1540.0" type="line" smooth="yes"/>
      <point x="340" y="1540.0"/>
      <point x="288" y="1479"/>
      <point x="288" y="1434" type="qcurve" smooth="yes"/>
      <point x="288" y="1427" type="line" smooth="yes"/>
      <point x="288" y="1381"/>
      <point x="339" y="1322"/>
      <point x="395" y="1322" type="qcurve" smooth="yes"/>
    </contour>
    <contour>
      <point x="372" y="900" type="line"/>
      <point x="40" y="880" type="line"/>
      <point x="40" y="1022" type="line"/>
      <point x="372" y="1042" type="line"/>
    </contour>
  </outline>
</glyph>
<glyph name="k" format="2">
  <advance width="1529"/>
  <unicode hex="006B"/>
  <outline>
    <contour>
      <point x="223" y="0" type="line"/>
      <point x="223" y="1540" type="line"/>
      <point x="403" y="1540" type="line"/>
      <point x="403" y="0" type="line"/>
    </contour>
    <contour>
      <point x="878" y="634" type="line"/>
      <point x="385" y="273" type="line"/>
      <point x="385" y="393" type="line"/>
      <point x="694.0" y="616.0" type="line"/>
      <point x="1318" y="1040" type="line"/>
      <point x="1539" y="1040" type="line"/>
      <point x="1003" y="672" type="line"/>
    </contour>
    <contour>
      <point x="978" y="735" type="line"/>
      <point x="1600" y="0" type="line"/>
      <point x="1381" y="0" type="line"/>
      <point x="835" y="649" type="line"/>
    </contour>
  </outline>
</glyph>
<glyph name="l" format="2">
  <advance width="690"/>
  <unicode hex="006C"/>
  <outline>
    <contour>
      <point x="246" y="66" type="qcurve" smooth="yes"/>
      <point x="256" y="1539" type="line"/>
      <point x="426" y="1539" type="line"/>
      <point x="446" y="1" type="line"/>
      <point x="299" y="-3"/>
      <point x="245.0" y="26.0"/>
    </contour>
    <contour>
      <point x="735" y="85" type="line"/>
      <point x="448" y="1" type="line"/>
      <point x="177" y="145" type="line"/>
      <point x="732" y="225" type="line"/>
    </contour>
  </outline>
</glyph>
<glyph name="m" format="2">
  <advance width="2500"/>
  <unicode hex="006D"/>
  <outline>
    <contour>
      <point x="245" y="0" type="line"/>
      <point x="245" y="1040" type="line"/>
      <point x="415" y="1040" type="line"/>
      <point x="425" y="0" type="line"/>
    </contour>
    <contour>
      <point x="284" y="646" type="line"/>
      <point x="341" y="797"/>
      <point x="724" y="1080"/>
      <point x="963.0" y="1080.0" type="qcurve" smooth="yes"/>
      <point x="1141" y="1080"/>
      <point x="1364" y="861"/>
      <point x="1366" y="654.0" type="qcurve" smooth="yes"/>
      <point x="1366" y="0.0" type="line"/>
      <point x="1185.0" y="0.0" type="line"/>
      <point x="1185" y="673.0" type="line" smooth="yes"/>
      <point x="1185" y="836"/>
      <point x="982" y="968"/>
      <point x="879.0" y="968.0" type="qcurve" smooth="yes"/>
      <point x="731" y="968"/>
      <point x="394" y="738"/>
      <point x="306" y="582" type="qcurve"/>
    </contour>
    <contour>
      <point x="1185" y="650" type="line"/>
      <point x="1244" y="809"/>
      <point x="1619" y="1080"/>
      <point x="1865.0" y="1080.0" type="qcurve" smooth="yes"/>
      <point x="2032.0" y="1080"/>
      <point x="2293" y="852"/>
      <point x="2295" y="645.0" type="qcurve" smooth="yes"/>
      <point x="2295" y="0.0" type="line"/>
      <point x="2114.0" y="0.0" type="line"/>
      <point x="2114.0" y="670" type="line" smooth="yes"/>
      <point x="2114" y="834"/>
      <point x="1876.0" y="967"/>
      <point x="1783.0" y="967.0" type="qcurve" smooth="yes"/>
      <point x="1635" y="967"/>
      <point x="1305" y="755"/>
      <point x="1212" y="594" type="qcurve"/>
    </contour>
  </outline>
</glyph>
<glyph name="n" format="2">
  <advance width="1650"/>
  <unicode hex="006E"/>
  <outline>
    <contour>
      <point x="245.0" y="0.0" type="line"/>
      <point x="245.0" y="1040.0" type="line"/>
      <point x="415.0" y="1040.0" type="line"/>
      <point x="425.0" y="0.0" type="line"/>
    </contour>
    <contour>
      <point x="287" y="666" type="line"/>
      <point x="328" y="820"/>
      <point x="718.0" y="1080.0"/>
      <point x="948" y="1080.0" type="qcurve" smooth="yes"/>
      <point x="1176" y="1080"/>
      <point x="1445.0" y="852.0"/>
      <point x="1445" y="645" type="qcurve" smooth="yes"/>
      <point x="1444" y="0" type="line"/>
      <point x="1263" y="0.0" type="line"/>
      <point x="1263.0" y="660" type="line" smooth="yes"/>
      <point x="1263.0" y="818.0"/>
      <point x="1020" y="957.0"/>
      <point x="859.0" y="957.0" type="qcurve" smooth="yes"/>
      <point x="727" y="957"/>
      <point x="388" y="743.0"/>
      <point x="313" y="594.0" type="qcurve"/>
    </contour>
  </outline>
</glyph>
<glyph name="o" format="2">
  <advance width="1766"/>
  <unicode hex="006F"/>
  <outline>
    <contour>
      <point x="875" y="-24.0" type="line" smooth="yes"/>
      <point x="511.0" y="-24"/>
      <point x="118" y="272.0"/>
      <point x="118" y="512.0" type="qcurve" smooth="yes"/>
      <point x="118" y="529.0" type="line" smooth="yes"/>
      <point x="118" y="778.0"/>
      <point x="511.0" y="1081.0"/>
      <point x="871" y="1081.0" type="qcurve" smooth="yes"/>
      <point x="879" y="1081.0" type="line" smooth="yes"/>
      <point x="1257.0" y="1081.0"/>
      <point x="1648" y="782.0"/>
      <point x="1648.0" y="527.0" type="qcurve" smooth="yes"/>
      <point x="1648.0" y="516.0" type="line" smooth="yes"/>
      <point x="1648" y="272.0"/>
      <point x="1252.0" y="-24.0"/>
      <point x="883" y="-24.0" type="qcurve" smooth="yes"/>
    </contour>
    <contour>
      <point x="877" y="94.0" type="line" smooth="yes"/>
      <point x="1134.0" y="94.0"/>
      <point x="1466.0" y="313.0"/>
      <point x="1466.0" y="517" type="qcurve" smooth="yes"/>
      <point x="1466.0" y="532" type="line" smooth="yes"/>
      <point x="1466.0" y="740"/>
      <point x="1145" y="968.0"/>
      <point x="877" y="968.0" type="qcurve" smooth="yes"/>
      <point x="868" y="968.0" type="line" smooth="yes"/>
      <point x="602.0" y="968.0"/>
      <point x="300.0" y="749.0"/>
      <point x="300.0" y="533" type="qcurve" smooth="yes"/>
      <point x="300.0" y="519" type="line" smooth="yes"/>
      <point x="300.0" y="313.0"/>
      <point x="602.0" y="94.0"/>
      <point x="868" y="94.0" type="qcurve" smooth="yes"/>
    </contour>
  </outline>
</glyph>
<glyph name="q" format="2">
  <advance width="1838"/>
  <unicode hex="0071"/>
  <outline>
    <contour>
      <point x="1593" y="-480" type="line"/>
      <point x="1413" y="-480" type="line"/>
      <point x="1423" y="1060" type="line"/>
      <point x="1593" y="1060" type="line"/>
    </contour>
    <contour>
      <point x="1501" y="541" type="qcurve" smooth="yes"/>
      <point x="1501" y="506" type="line" smooth="yes"/>
      <point x="1501.0" y="295.0"/>
      <point x="1108.0" y="-25.0"/>
      <point x="831" y="-25" type="qcurve" smooth="yes"/>
      <point x="821" y="-25" type="line" smooth="yes"/>
      <point x="486" y="-25"/>
      <point x="102" y="284"/>
      <point x="102" y="506" type="qcurve" smooth="yes"/>
      <point x="102" y="541" type="line" smooth="yes"/>
      <point x="102" y="762"/>
      <point x="502" y="1083"/>
      <point x="836" y="1083" type="qcurve" smooth="yes"/>
      <point x="846" y="1083" type="line" smooth="yes"/>
      <point x="1155.0" y="1083.0"/>
      <point x="1501.0" y="810.0"/>
    </contour>
    <contour>
      <point x="1384.0" y="537" type="line" smooth="yes"/>
      <point x="1384.0" y="790.0"/>
      <point x="1060.0" y="978.0"/>
      <point x="832.0" y="978" type="qcurve" smooth="yes"/>
      <point x="820.0" y="978" type="line" smooth="yes"/>
      <point x="585" y="978"/>
      <point x="276.0" y="747"/>
      <point x="276.0" y="537" type="qcurve" smooth="yes"/>
      <point x="276.0" y="507" type="line" smooth="yes"/>
      <point x="276.0" y="298"/>
      <point x="599" y="75"/>
      <point x="818.0" y="75" type="qcurve" smooth="yes"/>
      <point x="830.0" y="75" type="line" smooth="yes"/>
      <point x="1063" y="75"/>
      <point x="1384.0" y="289"/>
      <point x="1384.0" y="507" type="qcurve" smooth="yes"/>
    </contour>
  </outline>
</glyph>
<glyph name="r" format="2">
  <advance width="1176"/>
  <unicode hex="0072"/>
  <outline>
    <contour>
      <point x="245" y="0" type="line"/>
      <point x="245" y="1040" type="line"/>
      <point x="426" y="1040" type="line"/>
      <point x="426" y="0" type="line"/>
    </contour>
    <contour>
      <point x="394" y="836" type="line"/>
      <point x="484" y="945"/>
      <point x="868" y="1082"/>
      <point x="1088" y="1082" type="qcurve" smooth="yes"/>
      <point x="1107" y="1082"/>
      <point x="1147" y="1081"/>
      <point x="1166" y="1080" type="qcurve"/>
      <point x="1166" y="926" type="line"/>
      <point x="1148" y="927"/>
      <point x="1109" y="929"/>
      <point x="1088" y="929" type="qcurve" smooth="yes"/>
      <point x="866" y="929"/>
      <point x="525" y="821"/>
      <point x="428" y="717" type="qcurve"/>
    </contour>
  </outline>
</glyph>
<glyph name="t" format="2">
  <advance width="878"/>
  <unicode hex="0074"/>
  <outline>
    <contour>
      <point x="908" y="910" type="line"/>
      <point x="17" y="910" type="line"/>
      <point x="17" y="1037" type="line"/>
      <point x="908" y="1037" type="line"/>
    </contour>
    <contour>
      <point x="503.0" y="395" type="line" smooth="yes"/>
      <point x="503.0" y="250.0"/>
      <point x="619.0" y="86.0"/>
      <point x="690.0" y="86" type="qcurve" smooth="yes"/>
      <point x="757" y="86"/>
      <point x="843.0" y="122"/>
      <point x="818.0" y="119" type="qcurve"/>
      <point x="877.0" y="24" type="line"/>
      <point x="853.0" y="3"/>
      <point x="775.0" y="-22"/>
      <point x="705" y="-22" type="qcurve"/>
      <point x="566.0" y="-22"/>
      <point x="339" y="232.0"/>
      <point x="339.0" y="415" type="qcurve" smooth="yes"/>
      <point x="339.0" y="1299.0" type="line"/>
      <point x="503.0" y="1299.0" type="line"/>
    </contour>
  </outline>
</glyph>
<glyph name="v" format="2">
  <advance width="1433"/>
  <unicode hex="0076"/>
  <outline>
    <contour>
      <point x="611" y="1" type="line"/>
      <point x="-30" y="1041" type="line"/>
      <point x="151.0" y="1041.0" type="line"/>
      <point x="725.0" y="105" type="line"/>
      <point x="1276.0" y="1041.0" type="line"/>
      <point x="1463" y="1041" type="line"/>
      <point x="826" y="1" type="line"/>
    </contour>
  </outline>
</glyph>
<glyph name="w" format="2">
  <advance width="2082"/>
  <unicode hex="0077"/>
  <outline>
    <contour>
      <point x="468" y="-9" type="line"/>
      <point x="0" y="1041" type="line"/>
      <point x="159" y="1041" type="line"/>
      <point x="605" y="172" type="line"/>
      <point x="962" y="1051" type="line"/>
      <point x="1169" y="1051" type="line"/>
      <point x="1529" y="172" type="line"/>
      <point x="1955" y="1041" type="line"/>
      <point x="2082" y="1041" type="line"/>
      <point x="1620" y="-9" type="line"/>
      <point x="1414" y="-9" type="line"/>
      <point x="1052" y="950" type="line"/>
      <point x="675" y="-9" type="line"/>
    </contour>
  </outline>
</glyph>
<glyph name="x" format="2">
  <advance width="1334"/>
  <unicode hex="0078"/>
  <outline>
    <contour>
      <point x="22" y="1" type="line"/>
      <point x="1120" y="1041" type="line"/>
      <point x="1314" y="1041" type="line"/>
      <point x="216" y="1" type="line"/>
    </contour>
    <contour>
      <point x="1138" y="1" type="line"/>
      <point x="31" y="1041" type="line"/>
      <point x="237" y="1041" type="line"/>
      <point x="1343" y="1" type="line"/>
    </contour>
  </outline>
</glyph>
<glyph name="y" format="2">
  <advance width="1415"/>
  <unicode hex="0079"/>
  <outline>
    <contour>
      <point x="603" y="-26" type="qcurve"/>
      <point x="-37" y="1040" type="line"/>
      <point x="165" y="1040" type="line"/>
      <point x="723" y="81" type="line"/>
      <point x="1275" y="1040" type="line"/>
      <point x="1445" y="1040" type="line"/>
      <point x="824" y="-1" type="line" smooth="yes"/>
      <point x="642" y="-354"/>
      <point x="307.0" y="-487.0"/>
      <point x="173" y="-487" type="qcurve" smooth="yes"/>
      <point x="89" y="-487"/>
      <point x="27" y="-487"/>
      <point x="-19" y="-472" type="qcurve"/>
      <point x="-3" y="-335" type="line"/>
      <point x="26.0" y="-343.0"/>
      <point x="111.0" y="-352.0"/>
      <point x="184.0" y="-352.0" type="qcurve" smooth="yes"/>
      <point x="244" y="-352"/>
      <point x="547.0" y="-177"/>
    </contour>
  </outline>
</glyph>
<glyph name="z" format="2">
  <advance width="1337"/>
  <unicode hex="007A"/>
  <outline>
    <contour>
      <point x="1309" y="1" type="line"/>
      <point x="48" y="1" type="line"/>
      <point x="43" y="109" type="line"/>
      <point x="1003" y="923" type="line"/>
      <point x="49" y="923" type="line"/>
      <point x="49" y="1041" type="line"/>
      <point x="1288" y="1041" type="line"/>
      <point x="1288" y="958" type="line"/>
      <point x="291" y="119" type="line"/>
      <point x="1309" y="119" type="line"/>
    </contour>
  </outline>
</glyph>
<glyph name="braceleft" format="2">
  <advance width="1040"/>
  <unicode hex="007B"/>
  <outline>
    <contour>
      <point x="124" y="541" type="line"/>
      <point x="319" y="540"/>
      <point x="406" y="513"/>
      <point x="406.0" y="454.0" type="qcurve" smooth="yes"/>
      <point x="406" y="423"/>
      <point x="356" y="319"/>
      <point x="325" y="277" type="qcurve" smooth="yes"/>
      <point x="289" y="227"/>
      <point x="207" y="85"/>
      <point x="207.0" y="-36.0" type="qcurve" smooth="yes"/>
      <point x="207" y="-171"/>
      <point x="584" y="-366"/>
      <point x="933" y="-344" type="qcurve"/>
      <point x="883" y="-175" type="line"/>
      <point x="625" y="-199"/>
      <point x="411" y="-47"/>
      <point x="411.0" y="-31.0" type="qcurve" smooth="yes"/>
      <point x="411" y="71"/>
      <point x="466" y="192"/>
      <point x="496" y="240" type="qcurve" smooth="yes"/>
      <point x="527" y="288"/>
      <point x="604" y="404"/>
      <point x="604.0" y="511.0" type="qcurve" smooth="yes"/>
      <point x="604" y="514"/>
      <point x="550" y="578"/>
      <point x="518" y="599" type="qcurve"/>
      <point x="551" y="624"/>
      <point x="604" y="706"/>
      <point x="604.0" y="714" type="qcurve" smooth="yes"/>
      <point x="604" y="816"/>
      <point x="532" y="930"/>
      <point x="503" y="979" type="qcurve" smooth="yes"/>
      <point x="477" y="1021"/>
      <point x="412" y="1149"/>
      <point x="412.0" y="1246.0" type="qcurve" smooth="yes"/>
      <point x="412" y="1266"/>
      <point x="615" y="1388"/>
      <point x="890" y="1377" type="qcurve"/>
      <point x="939" y="1552" type="line"/>
      <point x="594" y="1551"/>
      <point x="206" y="1367"/>
      <point x="206.0" y="1245.0" type="qcurve" smooth="yes"/>
      <point x="206" y="1147"/>
      <point x="297" y="993"/>
      <point x="329" y="949" type="qcurve" smooth="yes"/>
      <point x="360" y="907"/>
      <point x="406" y="807"/>
      <point x="406.0" y="763" type="qcurve" smooth="yes"/>
      <point x="406" y="700"/>
      <point x="296" y="681"/>
      <point x="124" y="681" type="qcurve"/>
    </contour>
  </outline>
</glyph>
<glyph name="bar" format="2">
  <advance width="1130"/>
  <unicode hex="007C"/>
  <outline>
    <contour>
      <point x="480" y="-500" type="line"/>
      <point x="480" y="1500" type="line"/>
      <point x="650" y="1500" type="line"/>
      <point x="650" y="-500" type="line"/>
    </contour>
  </outline>
</glyph>
<glyph name="braceright" format="2">
  <advance width="1040"/>
  <unicode hex="007D"/>
  <outline>
    <contour>
      <point x="916" y="541" type="qcurve"/>
      <point x="916" y="681" type="line"/>
      <point x="744" y="681"/>
      <point x="634" y="700"/>
      <point x="634.0" y="763.0" type="qcurve" smooth="yes"/>
      <point x="634" y="807"/>
      <point x="680" y="907"/>
      <point x="711" y="949" type="qcurve" smooth="yes"/>
      <point x="743" y="993"/>
      <point x="834" y="1147"/>
      <point x="834.0" y="1245.0" type="qcurve" smooth="yes"/>
      <point x="834" y="1367"/>
      <point x="446" y="1551"/>
      <point x="101" y="1552" type="qcurve"/>
      <point x="150" y="1377" type="line"/>
      <point x="425" y="1388"/>
      <point x="628" y="1266"/>
      <point x="628.0" y="1246.0" type="qcurve" smooth="yes"/>
      <point x="628" y="1149"/>
      <point x="563" y="1021"/>
      <point x="537" y="979" type="qcurve" smooth="yes"/>
      <point x="508" y="930"/>
      <point x="436" y="816"/>
      <point x="436.0" y="714.0" type="qcurve" smooth="yes"/>
      <point x="436" y="706"/>
      <point x="489" y="624"/>
      <point x="522" y="599" type="qcurve"/>
      <point x="490" y="578"/>
      <point x="436" y="514"/>
      <point x="436.0" y="511.0" type="qcurve" smooth="yes"/>
      <point x="436" y="404"/>
      <point x="513" y="288"/>
      <point x="544" y="240" type="qcurve" smooth="yes"/>
      <point x="574" y="192"/>
      <point x="629" y="71"/>
      <point x="629.0" y="-31.0" type="qcurve" smooth="yes"/>
      <point x="629" y="-47"/>
      <point x="415" y="-199"/>
      <point x="157" y="-175" type="qcurve"/>
      <point x="107" y="-344" type="line"/>
      <point x="456" y="-366"/>
      <point x="833" y="-171"/>
      <point x="833.0" y="-36.0" type="qcurve" smooth="yes"/>
      <point x="833" y="85"/>
      <point x="751" y="227"/>
      <point x="715" y="277" type="qcurve" smooth="yes"/>
      <point x="684" y="319"/>
      <point x="634" y="423"/>
      <point x="634.0" y="454.0" type="qcurve" smooth="yes"/>
      <point x="634" y="513"/>
      <point x="721" y="540"/>
    </contour>
  </outline>
</glyph>
<glyph name="asciitilde" format="2">
  <advance width="2420"/>
  <unicode hex="007E"/>
  <outline>
    <contour>
      <point x="1252" y="902.0" type="qcurve" smooth="yes"/>
      <point x="1163" y="943.0"/>
      <point x="1008" y="1015.0"/>
      <point x="872" y="1015.0" type="qcurve" smooth="yes"/>
      <point x="711.0" y="1015.0"/>
      <point x="475" y="870.0"/>
      <point x="430" y="800.0" type="qcurve"/>
      <point x="563" y="736.0" type="line"/>
      <point x="593" y="770.0"/>
      <point x="777" y="858"/>
      <point x="882" y="858.0" type="qcurve"/>
      <point x="986.0" y="858.0"/>
      <point x="1106" y="820"/>
      <point x="1176" y="782.0" type="qcurve" smooth="yes"/>
      <point x="1253" y="746"/>
      <point x="1444" y="666.0"/>
      <point x="1586" y="666.0" type="qcurve" smooth="yes"/>
      <point x="1755" y="666.0"/>
      <point x="1988" y="821.0"/>
      <point x="2021" y="880.0" type="qcurve"/>
      <point x="1886" y="946.0" type="line"/>
      <point x="1855" y="909.0"/>
      <point x="1680" y="816.0"/>
      <point x="1567" y="816.0" type="qcurve" smooth="yes"/>
      <point x="1464" y="816"/>
      <point x="1332" y="861"/>
    </contour>
  </outline>
</glyph>
